<?xml version="1.0" standalone="no"?><!DOCTYPE svg PUBLIC "-//W3C//DTD SVG 1.1//EN" "http://www.w3.org/Graphics/SVG/1.1/DTD/svg11.dtd"><svg t="1552963019488" class="icon" style="" viewBox="0 0 1024 1024" version="1.1" xmlns="http://www.w3.org/2000/svg" p-id="3577" xmlns:xlink="http://www.w3.org/1999/xlink" width="64" height="64"><defs><style type="text/css"></style></defs><path d="M139.636364 0h744.727272a139.636364 139.636364 0 0 1 139.636364 139.636364v744.727272a139.636364 139.636364 0 0 1-139.636364 139.636364H139.636364a139.636364 139.636364 0 0 1-139.636364-139.636364V139.636364a139.636364 139.636364 0 0 1 139.636364-139.636364z m261.275151 262.469818H241.260606c-11.062303 0-20.433455 3.847758-28.082424 11.527758A38.322424 38.322424 0 0 0 201.69697 302.142061v159.961212c0 11.077818 3.832242 20.573091 11.481212 28.470303a37.670788 37.670788 0 0 0 28.097939 11.822545H400.911515c11.062303 0 20.526545-3.940848 28.392727-11.822545 7.881697-7.897212 11.822545-17.37697 11.822546-28.485818V302.142061c0-11.077818-3.940848-20.48-11.80703-28.144485a39.253333 39.253333 0 0 0-28.408243-11.527758z m0 319.906909H241.260606a38.167273 38.167273 0 0 0-28.082424 11.512243c-7.664485 7.68-11.496727 17.066667-11.496727 28.16v160.581818c0 11.093333 3.832242 20.48 11.481212 28.16a38.167273 38.167273 0 0 0 28.097939 11.512242H400.911515a39.253333 39.253333 0 0 0 28.392727-11.512242c7.881697-7.68 11.822545-17.066667 11.822546-28.16v-160.581818c0-11.093333-3.940848-20.48-11.80703-28.16a39.222303 39.222303 0 0 0-28.408243-11.512243z m319.875879 0H561.167515c-11.077818 0-20.542061 3.832242-28.408242 11.512243a37.794909 37.794909 0 0 0-11.822546 28.16v160.581818c0 11.093333 3.940848 20.48 11.822546 28.16a39.237818 39.237818 0 0 0 28.392727 11.512242h159.635394a38.167273 38.167273 0 0 0 28.082424-11.512242c7.664485-7.68 11.496727-17.066667 11.496727-28.16v-160.581818c0-11.093333-3.832242-20.48-11.481212-28.16a38.167273 38.167273 0 0 0-28.097939-11.512243z m88.746667-249.514666l-118.75297-119.001213c-8.517818-8.114424-18.416485-12.163879-29.696-12.163878-11.279515 0-21.178182 4.049455-29.680485 12.148363l-118.768485 119.001212a42.278788 42.278788 0 0 0-12.132848 30.083879c0 11.512242 4.033939 21.317818 12.132848 29.432243l118.768485 119.001212c8.502303 8.533333 18.40097 12.8 29.680485 12.8 11.279515 0 21.178182-4.266667 29.696-12.8l118.75297-119.001212c8.517818-8.114424 12.76897-17.92 12.768969-29.432243s-4.251152-21.550545-12.768969-30.068363z" fill="#666666" p-id="3578"></path></svg>