<?xml version="1.0" standalone="no"?><!DOCTYPE svg PUBLIC "-//W3C//DTD SVG 1.1//EN" "http://www.w3.org/Graphics/SVG/1.1/DTD/svg11.dtd"><svg t="1552962935663" class="icon" style="" viewBox="0 0 1024 1024" version="1.1" xmlns="http://www.w3.org/2000/svg" p-id="1942" xmlns:xlink="http://www.w3.org/1999/xlink" width="64" height="64"><defs><style type="text/css"></style></defs><path d="M727.140204 383.76015 299.077077 384.16523C275.539788 384.16523 256.43706 365.062503 256.43706 341.525213 256.43706 317.966604 275.539788 298.885197 299.077077 298.885197L727.140204 298.480117C750.698813 298.480117 769.780221 317.582844 769.780221 341.120133 769.780221 364.678742 750.698813 383.76015 727.140204 383.76015ZM727.140204 554.320217 299.077077 554.725297C275.539788 554.725297 256.43706 535.622569 256.43706 512.08528 256.43706 488.526671 275.539788 469.445263 299.077077 469.445263L727.140204 469.040183C750.698813 469.040183 769.780221 488.142911 769.780221 511.6802 769.780221 535.238809 750.698813 554.320217 727.140204 554.320217ZM883.820945 713.474079C883.245305 714.028399 882.605705 714.454799 882.030065 714.966479 880.836144 715.90456 879.684864 716.86396 878.405663 717.67412 877.680783 718.185801 877.041183 718.825401 876.273662 719.294441L591.502311 1004.811993C583.869748 1016.346117 570.821903 1023.97868 555.940537 1023.97868 549.992255 1023.97868 544.342453 1022.74212 539.183011 1020.546159 538.927171 1020.439559 538.71397 1020.247679 538.45813 1020.141078 534.343369 1018.286238 530.633687 1015.749157 527.329086 1012.743036 526.582886 1012.103435 525.623485 1011.847595 524.898605 1011.144035 514.387841 1000.633271 510.550239 986.007745 513.300521 972.46954L513.02336 767.5203 513.321841 767.5203 513.321841 724.880283C513.321841 677.763065 551.505975 639.60025 598.601874 639.60025L643.906892 639.60025 643.906892 639.47233 811.759317 639.25913 811.482157 247.056257C809.797876 183.821112 791.526629 171.583427 726.543244 171.583427L765.516219 170.624027 683.881907 170.666667 683.881907 213.200083C683.881907 236.737372 664.8005 255.8401 641.24189 255.8401 617.683281 255.8401 598.601874 236.737372 598.601874 213.200083L598.601874 170.709307 428.041807 170.815907 428.041807 213.200083C428.041807 236.737372 408.9604 255.8401 385.401791 255.8401 361.843181 255.8401 342.761774 236.737372 342.761774 213.200083L342.761774 170.858547 272.533666 170.901187 300.100437 171.583427C231.684531 171.583427 214.820404 184.439392 214.820404 256.86346L215.374724 170.922507 214.457964 170.922507 214.799084 938.400167 215.374724 938.400167 214.820404 851.776973C214.820404 924.179721 231.684531 937.057006 300.100437 937.057006L248.015657 938.336207 383.35507 938.080366C406.913679 938.080366 425.995086 957.183094 425.995086 980.720383 425.995086 1004.278992 406.913679 1023.3604 383.35507 1023.3604L257.481741 1023.59492 257.481741 1023.3604 214.841724 1023.3604C167.745826 1023.3604 129.561691 985.176265 129.561691 938.080366L129.561691 892.775349 129.497731 892.775349 129.19925 215.865084 129.561691 215.865084 129.561691 170.560067C129.561691 124.743369 165.763065 87.667874 211.089402 85.642473L342.761774 85.578513 342.761774 42.640017C342.761774 19.081407 361.843181 0 385.401791 0 408.9604 0 428.041807 19.081407 428.041807 42.640017L428.041807 85.535873 598.601874 85.429273 598.601874 42.640017C598.601874 19.081407 617.683281 0 641.24189 0 664.8005 0 683.881907 19.081407 683.881907 42.640017L683.881907 85.386633 812.143077 85.301353C857.810535 85.493233 894.715469 121.630648 896.69823 166.829065L897.06067 672.603623C897.721591 675.588424 898.126671 678.658505 898.126671 681.835186 898.126671 694.456631 892.519509 705.670956 883.820945 713.474079ZM598.260754 724.816323 598.346034 801.419113 598.857714 725.413283 684.905268 724.858963C613.31268 724.858963 598.687154 741.53121 598.367354 808.028316L598.452634 877.083823 750.528253 724.603123 598.260754 724.816323ZM811.418197 170.581387 811.268957 170.581387 811.439517 199.150198 811.418197 170.581387Z" p-id="1943" fill="#666666"></path></svg>