<svg height="512" viewBox="0 0 64 64" width="512" xmlns="http://www.w3.org/2000/svg"><g id="cleaning_brush-2" data-name="cleaning brush"><path d="m8 28h48v21h-48z" fill="#e0e0e2"/><path d="m8 28h48v1h-48z" fill="#898890"/><path d="m3 53h58v8h-58z" fill="#57565c"/><circle cx="48" cy="15" fill="#bdfdff" r="2"/><path d="m22 3h17v6h-17z" fill="#e0e0e2"/><path d="m11 12h8v4h-8z" fill="#e0e0e2"/><path d="m45.12 3.88a3 3 0 0 1 -2.12 5.12h-4v-6h4a2.993 2.993 0 0 1 2.12.88z" fill="#957856"/><path d="m22 3v6h-3v3h-8v-7a2.006 2.006 0 0 1 2-2z" fill="#957856"/><path d="m11 16h8v4h-8z" fill="#957856"/><path d="m59 51a5.8 5.8 0 0 1 -.35 2 5.987 5.987 0 0 1 -10.83 1.01 3 3 0 0 1 -5.82-1.01h-22v3a2.006 2.006 0 0 1 -2 2 2.015 2.015 0 0 1 -2-2v-2a2.015 2.015 0 0 1 -2 2 2.006 2.006 0 0 1 -2-2v-1h-5a5.006 5.006 0 0 1 1-8.59 5.106 5.106 0 0 1 2-.41 4.932 4.932 0 0 1 2.03.44 7.99 7.99 0 0 1 13.12-5.56 8.043 8.043 0 0 1 3.77-3.26 7.879 7.879 0 0 1 3.08-.62 7.983 7.983 0 0 1 6.51 3.36 8.926 8.926 0 0 1 8.32 1.79 5.069 5.069 0 0 1 1.17-.15 5 5 0 0 1 5 5 5.857 5.857 0 0 1 3 .81 5.985 5.985 0 0 1 3 5.19z" fill="#2488ff"/><path d="m59 22v4a2.006 2.006 0 0 1 -2 2h-51a1 1 0 0 1 -1-1v-6a1 1 0 0 1 1-1h51a2.006 2.006 0 0 1 2 2z" fill="#ff9811"/><circle cx="20" cy="47" fill="#bdfdff" r="2"/><path d="m10.994 28h2v5h-2z" fill="#787680" transform="matrix(1 -.002 .002 1 -.068 .027)"/><path d="m15.011 34.002-.011-5.996 2-.006.011 5.997z" fill="#787680"/><path d="m18.994 28h2v5h-2z" fill="#787680" transform="matrix(1 -.002 .002 1 -.068 .045)"/><path d="m23.011 34.002-.011-5.996 2-.006.011 5.997z" fill="#787680"/><path d="m26.994 28h2v5h-2z" fill="#787680" transform="matrix(1 -.002 .002 1 -.068 .063)"/><path d="m31.006 28h2v4h-2z" fill="#787680" transform="matrix(1 -.003 .003 1 -.084 .09)"/><path d="m35.011 34.002-.011-5.996 2-.006.011 5.997z" fill="#787680"/><path d="m38.994 28h2v5h-2z" fill="#787680" transform="matrix(1 -.002 .002 1 -.068 .09)"/><path d="m43.011 34.002-.011-5.996 2-.006.011 5.997z" fill="#787680"/><path d="m46.994 28h2v5h-2z" fill="#787680" transform="matrix(1 -.002 .002 1 -.068 .108)"/><path d="m51.011 34.002-.011-5.996 2-.006.011 5.997z" fill="#787680"/><g fill="#bdfdff"><path d="m53 3h2v2h-2z"/><path d="m55 5h2v2h-2z"/><path d="m53 7h2v2h-2z"/><path d="m51 5h2v2h-2z"/><path d="m30 38h2v2h-2z"/><path d="m32 40h2v2h-2z"/><path d="m30 42h2v2h-2z"/><path d="m28 40h2v2h-2z"/><path d="m41 44h2v2h-2z"/><path d="m43 46h2v2h-2z"/><path d="m41 48h2v2h-2z"/><path d="m39 46h2v2h-2z"/></g><rect fill="#ffb655" height="3" rx="1.5" width="13" x="8" y="21"/><path d="m11 28h2v1h-2z" fill="#57565c"/><path d="m15 28h2v1h-2z" fill="#57565c"/><path d="m19 28h2v1h-2z" fill="#57565c"/><path d="m23 28h2v1h-2z" fill="#57565c"/><path d="m27 28h2v1h-2z" fill="#57565c"/><path d="m31 28h2v1h-2z" fill="#57565c"/><path d="m35 28h2v1h-2z" fill="#57565c"/><path d="m39 28h2v1h-2z" fill="#57565c"/><path d="m43 28h2v1h-2z" fill="#57565c"/><path d="m47 28h2v1h-2z" fill="#57565c"/><path d="m51 28h2v1h-2z" fill="#57565c"/></g></svg>