<?xml version="1.0" standalone="no"?><!DOCTYPE svg PUBLIC "-//W3C//DTD SVG 1.1//EN" "http://www.w3.org/Graphics/SVG/1.1/DTD/svg11.dtd"><svg t="1552944874035" class="icon" style="" viewBox="0 0 1024 1024" version="1.1" xmlns="http://www.w3.org/2000/svg" p-id="2749" xmlns:xlink="http://www.w3.org/1999/xlink" width="180" height="180"><defs><style type="text/css"></style></defs><path d="M512.285938 0C230.008265 0 0.4575 229.550765 0.4575 511.828437s229.550765 511.828437 511.828438 511.828438S1024.114375 794.10611 1024.114375 511.828437 794.449235 0 512.285938 0z m0 996.321233c-267.180163 0-484.492796-217.312633-484.492796-484.492796s217.312633-484.492796 484.492796-484.492795 484.492796 217.312633 484.492795 484.492795-217.312633 484.492796-484.492795 484.492796z m196.153244-612.135374c-15.097509 0-27.335642 12.238132-27.335641 27.335642v315.675193c0 16.24126-13.153133 29.394393-29.394393 29.394393H373.663353c-16.24126 0-29.394393-13.153133-29.394393-29.394393v-315.675193c0-15.097509-12.238132-27.335642-27.335642-27.335642s-27.335642 12.238132-27.335641 27.335642v315.675193c0 46.321903 37.629398 83.951301 83.951301 83.951301h278.045795c46.321903 0 83.951301-37.629398 83.951301-83.951301v-315.675193c0.114375-15.097509-12.123757-27.335642-27.106892-27.335642z m-100.306936 275.186418V411.407126c0-15.097509-12.238132-27.335642-27.335642-27.335642S553.575338 396.423992 553.575338 411.407126v247.965151c0 15.097509 12.238132 27.335642 27.335642 27.335642s27.221267-12.238132 27.221266-27.335642z m-136.335083 0V411.407126c0-15.097509-12.238132-27.335642-27.335642-27.335642s-27.335642 12.238132-27.335641 27.335642v247.965151c0 15.097509 12.238132 27.335642 27.335641 27.335642s27.335642-12.238132 27.335642-27.335642z m323.452697-363.827097h-90.01318v-31.453144c0-45.178153-36.714397-81.89255-81.89255-81.89255H401.913995c-45.178153 0-81.89255 36.714397-81.89255 81.89255v31.453144h-90.01318c-15.097509 0-27.335642 12.238132-27.335641 27.335642s12.238132 27.335642 27.335641 27.335642h565.12722c15.097509 0 27.335642-12.238132 27.335642-27.335642s-12.123757-27.335642-27.221267-27.335642z m-144.570088 0H374.692729v-31.453144c0-15.097509 12.238132-27.335642 27.335641-27.335641H623.34413c15.097509 0 27.335642 12.238132 27.335642 27.335641v31.453144z" fill="#666666" p-id="2750"></path></svg>