<?xml version="1.0" encoding="iso-8859-1"?>
<!-- Generator: Adobe Illustrator 19.0.0, SVG Export Plug-In . SVG Version: 6.00 Build 0)  -->
<svg version="1.1" id="Capa_1" xmlns="http://www.w3.org/2000/svg" xmlns:xlink="http://www.w3.org/1999/xlink" x="0px" y="0px"
	 viewBox="0 0 512 512" style="enable-background:new 0 0 512 512;" xml:space="preserve">
<circle style="fill:#D5DCED;" cx="256" cy="256" r="256"/>
<circle style="fill:#C7CFE2;" cx="256" cy="256" r="214.71"/>
<circle style="fill:#959CB5;" cx="256" cy="256" r="198.19"/>
<circle style="fill:#464655;" cx="256" cy="256" r="173.42"/>
<circle style="fill:#5B5D6E;" cx="256" cy="256" r="148.65"/>
<circle style="fill:#7F8499;" cx="313.81" cy="222.97" r="57.806"/>
<g>
	<circle style="fill:#00C3FF;" cx="222.97" cy="198.19" r="16.516"/>
	<circle style="fill:#00C3FF;" cx="280.77" cy="148.65" r="12.387"/>
</g>
<circle style="fill:#87DCFF;" cx="317.94" cy="194.06" r="8.258"/>
<path style="fill:#00AAF0;" d="M82.581,256c0,95.777,77.643,173.419,173.419,173.419S429.419,351.777,429.419,256
	c0-2.783-0.287-5.492-0.416-8.243c-28.476,0.166-28.648,16.501-57.417,16.501c-28.916,0-28.916-16.516-57.833-16.516
	c-28.897,0-28.897,16.516-57.793,16.516c-28.906,0-28.906-16.516-57.811-16.516c-28.896,0-28.896,16.516-57.791,16.516
	c-28.741,0-28.912-16.334-57.36-16.501C82.867,250.508,82.581,253.217,82.581,256z"/>
<path style="fill:#00C3FF;" d="M404.533,253.783c-8.839,4.716-15.852,10.475-32.947,10.475c-28.916,0-28.916-16.516-57.833-16.516
	c-28.897,0-28.897,16.516-57.793,16.516c-28.906,0-28.906-16.516-57.811-16.516c-28.896,0-28.896,16.516-57.791,16.516
	c-17.064,0-24.072-5.749-32.891-10.462c-0.011,0.741-0.111,1.46-0.111,2.204c0,82.094,66.551,148.645,148.645,148.645
	S404.645,338.094,404.645,256C404.645,255.252,404.544,254.529,404.533,253.783z"/>
<path style="fill:#C7CFE2;" d="M396.387,216.433v79.134c0,15.482,10.753,28.887,25.867,32.246l33.303,7.401
	c9.741-24.518,15.153-51.226,15.153-79.213c0-27.988-5.412-54.696-15.153-79.213l-33.303,7.401
	C407.14,187.546,396.387,200.951,396.387,216.433z"/>
<path style="fill:#87DCFF;" d="M313.754,247.742c-22.531,0-27.542,10.014-42.334,14.438c10.559,11.409,25.615,18.594,42.387,18.594
	c16.762,0,31.812-7.178,42.37-18.576C341.328,257.784,336.331,247.742,313.754,247.742z"/>
<g>
</g>
<g>
</g>
<g>
</g>
<g>
</g>
<g>
</g>
<g>
</g>
<g>
</g>
<g>
</g>
<g>
</g>
<g>
</g>
<g>
</g>
<g>
</g>
<g>
</g>
<g>
</g>
<g>
</g>
</svg>
