<svg height="512" viewBox="0 0 58 58" width="512" xmlns="http://www.w3.org/2000/svg"><g id="Page-1" fill="none" fill-rule="evenodd"><g id="020---CPU" fill-rule="nonzero"><path id="Shape" d="m55 10c-.0007347 1.349359.8995026 2.5331711 2.2 2.893.4583928.1055784.7873878.5077749.8.978v42.129c-.0032948 1.1032019-.8967981 1.9967052-2 2h-54c-1.10320187-.0032948-1.9967052-.8967981-2-2v-42.129c.01261219-.4702251.34160723-.8724216.8-.978 1.30284866-.3576067 2.20592759-1.5419644 2.20592759-2.893s-.90307893-2.5353933-2.20592759-2.893c-.45839277-.10557843-.78738781-.50777488-.8-.978v-4.129c.0032948-1.10320187.89679813-1.9967052 2-2h54c1.1032019.0032948 1.9967052.89679813 2 2v4.129c-.0126122.47022512-.3416072.87242157-.8.978-1.3004974.35982893-2.2007347 1.54364096-2.2 2.893z" fill="#24ae5f"/><path id="Shape" d="m9.793 54h-5.293c-.27614237 0-.5-.2238576-.5-.5v-5.293c.00004298-.2023268.12201662-.3846856.30899934-.4619747s.40211494-.0342727.54500066.1089747l5.292 5.292c.1432474.1428857.1862638.3580179.1089747.5450007-.0772891.1869827-.25964788.3089563-.4619747.3089993z" fill="#f3d55b"/><rect id="Rectangle-path" fill="#4c8056" height="42" rx="5" width="42" x="8" y="8"/><rect id="Rectangle-path" fill="#bdc3c7" height="38" rx="3" width="38" x="10" y="10"/><rect id="Rectangle-path" fill="#ecf0f1" height="30" rx="1" transform="matrix(0 1 -1 0 58 0)" width="30" x="14" y="14"/><path id="Shape" d="m22 34c-.408945.0003137-.7768725-.2484037-.929-.628l-1.748-4.372h-1.323c-.5522847 0-1-.4477153-1-1s.4477153-1 1-1h2c.408945-.0003137.7768725.2484037.929.628l.936 2.342 2.177-7.257c.1216706-.4076885.4879785-.6937537.913-.713.4265765-.0254512.8205521.2281655.974.627l1.748 4.373h3.323c.3808256-.0020788.7297741.2123306.9.553l.872 1.744 2.275-7.584c.1244833-.4158406.5030225-.7038859.937-.713h.016c.4302393.0003267.8120445.2758064.948.684l1.773 5.316h1.279c.5522847 0 1 .4477153 1 1s-.4477153 1-1 1h-2c-.4302393-.0003267-.8120445-.2758064-.948-.684l-1-3-2.092 6.974c-.1178118.3927636-.4634612.673802-.872.709-.4095139.0395909-.8005646-.179254-.981-.549l-1.725-3.45h-3.382c-.408945.0003137-.7768725-.2484037-.929-.628l-.936-2.342-2.177 7.257c-.1220224.4072941-.4882495.6928951-.913.712z" fill="#955ba5"/></g></g></svg>