<?xml version="1.0" encoding="UTF-8" standalone="no"?>
<!-- Generator: Adobe Illustrator 19.0.0, SVG Export Plug-In . SVG Version: 6.00 Build 0)  -->

<svg
   xmlns:dc="http://purl.org/dc/elements/1.1/"
   xmlns:cc="http://creativecommons.org/ns#"
   xmlns:rdf="http://www.w3.org/1999/02/22-rdf-syntax-ns#"
   xmlns:svg="http://www.w3.org/2000/svg"
   xmlns="http://www.w3.org/2000/svg"
   xmlns:sodipodi="http://sodipodi.sourceforge.net/DTD/sodipodi-0.dtd"
   xmlns:inkscape="http://www.inkscape.org/namespaces/inkscape"
   version="1.1"
   id="Capa_1"
   x="0px"
   y="0px"
   viewBox="0 0 512 512"
   style="enable-background:new 0 0 512 512;"
   xml:space="preserve"
   sodipodi:docname="home.svg"
   inkscape:version="0.92.1 r15371"><metadata
     id="metadata97"><rdf:RDF><cc:Work
         rdf:about=""><dc:format>image/svg+xml</dc:format><dc:type
           rdf:resource="http://purl.org/dc/dcmitype/StillImage" /></cc:Work></rdf:RDF></metadata><defs
     id="defs95" /><sodipodi:namedview
     pagecolor="#ffffff"
     bordercolor="#666666"
     borderopacity="1"
     objecttolerance="10"
     gridtolerance="10"
     guidetolerance="10"
     inkscape:pageopacity="0"
     inkscape:pageshadow="2"
     inkscape:window-width="1920"
     inkscape:window-height="968"
     id="namedview93"
     showgrid="false"
     inkscape:zoom="0.921875"
     inkscape:cx="-98.846762"
     inkscape:cy="253.37388"
     inkscape:window-x="0"
     inkscape:window-y="0"
     inkscape:window-maximized="1"
     inkscape:current-layer="Capa_1" /><circle
     style="fill:#F24976;"
     cx="267"
     cy="267"
     r="245"
     id="circle2" /><path
     style="fill:#EEF6FF;"
     d="M241.659,241.656c18.93-18.928,44.096-29.352,70.863-29.352c18.236,0,35.725,4.842,51.009,13.911  V53.763H0v316.91c0,5.5,4.5,10,10,10h229.065C202.614,341.426,203.475,279.842,241.659,241.656z"
     id="path4" /><path
     style="fill:#C3DDF4;"
     d="M22.68,370.673V53.763H0v316.91c0,5.5,4.5,10,10,10h22.68C27.18,380.673,22.68,376.173,22.68,370.673  z"
     id="path6" /><path
     style="fill:#445ea0;fill-opacity:1"
     d="M 357.815,-2.8349997 H 5.716 C 2.572,-2.8349997 0,-0.263 0,2.881 V 53.763 H 363.531 V 2.881 c 0,-3.144 -2.572,-5.7159997 -5.716,-5.7159997 z"
     id="path8"
     inkscape:connector-curvature="0" /><path
     style="fill:#69CDFF;"
     d="M158.259,178.615c0,2.75-2.25,5-5,5H41.816c-2.75,0-5-2.25-5-5V98.696c0-2.75,2.25-5,5-5h111.442  c2.75,0,5,2.25,5,5v79.919H158.259z"
     id="path12" /><path
     style="fill:#52BBEF;"
     d="M59.496,178.615V98.696c0-2.75,2.25-5,5-5h-22.68c-2.75,0-5,2.25-5,5v79.919c0,2.75,2.25,5,5,5h22.68  C61.746,183.615,59.496,181.365,59.496,178.615z"
     id="path14" /><path
     style="fill:#FF9518;"
     d="M217.149,281.788H41.816c-2.75,0-5,2.25-5,5v47.809c0,2.75,2.25,5,5,5h174.246  C210.787,320.688,211.146,300.524,217.149,281.788z"
     id="path16" /><path
     style="fill:#EF8318;"
     d="M59.496,334.597v-47.809c0-2.75,2.25-5,5-5h-22.68c-2.75,0-5,2.25-5,5v47.809c0,2.75,2.25,5,5,5  h22.68C61.746,339.597,59.496,337.347,59.496,334.597z"
     id="path18" /><path
     style="fill:#FFD00D;"
     d="M217.149,281.788H180.85v57.809h35.212C210.787,320.688,211.146,300.524,217.149,281.788z"
     id="path20" /><g
     id="g34"><path
       style="fill:#91E0E8;"
       d="M320.754,101.196H198.165c-4.142,0-7.5-3.358-7.5-7.5s3.358-7.5,7.5-7.5h122.589   c4.143,0,7.5,3.358,7.5,7.5S324.897,101.196,320.754,101.196z"
       id="path22" /><path
       style="fill:#91E0E8;"
       d="M320.754,131.169H198.165c-4.142,0-7.5-3.358-7.5-7.5s3.358-7.5,7.5-7.5h122.589   c4.143,0,7.5,3.358,7.5,7.5C328.254,127.811,324.897,131.169,320.754,131.169z"
       id="path24" /><path
       style="fill:#91E0E8;"
       d="M320.754,161.142H198.165c-4.142,0-7.5-3.358-7.5-7.5s3.358-7.5,7.5-7.5h122.589   c4.143,0,7.5,3.358,7.5,7.5S324.897,161.142,320.754,161.142z"
       id="path26" /><path
       style="fill:#91E0E8;"
       d="M320.754,191.115H198.165c-4.142,0-7.5-3.358-7.5-7.5s3.358-7.5,7.5-7.5h122.589   c4.143,0,7.5,3.358,7.5,7.5S324.897,191.115,320.754,191.115z"
       id="path28" /><path
       style="fill:#91E0E8;"
       d="M299.459,213.148H36.816c-4.143,0-7.5,3.358-7.5,7.5s3.357,7.5,7.5,7.5H258.39   C270.777,220.167,284.742,215.052,299.459,213.148z"
       id="path30" /><path
       style="fill:#91E0E8;"
       d="M239.711,243.662H36.816c-4.143,0-7.5,3.358-7.5,7.5s3.357,7.5,7.5,7.5h191.188   C231.366,253.387,235.266,248.359,239.711,243.662z"
       id="path32" /></g><path
     style="fill:#445EA0;"
     d="M409.768,389.207l-20.555,20.556L429.65,450.2c7.25-6.441,14.114-13.306,20.556-20.556  L409.768,389.207z"
     id="path42" /><path
     style="fill:#293D7C;"
     d="M417.928,376.811l-17.035-17.034c-4.531,8.486-10.365,16.455-17.512,23.601  c-7.066,7.066-15.002,12.945-23.566,17.541l17.003,17.002c1.944,1.945,5.126,1.945,7.071,0l34.039-34.039  C419.872,381.938,419.872,378.756,417.928,376.811z"
     id="path44" /><path
     style="fill:#1A2B63;"
     d="M388.484,406.254l-14.54-14.54c-4.471,3.481-9.196,6.556-14.13,9.204l17.003,17.002  c1.944,1.945,5.126,1.945,7.071,0l11.667-11.667C393.61,408.199,390.429,408.199,388.484,406.254z"
     id="path46" /><path
     style="fill:#445EA0;"
     d="M384.796,240.241c39.916,39.916,39.916,104.634-0.001,144.551  c-39.914,39.913-104.631,39.914-144.55-0.001c-39.916-39.916-39.914-104.634,0-144.549  C280.164,200.325,344.881,200.324,384.796,240.241z"
     id="path48" /><path
     style="fill:#69CDFF;"
     d="M363.197,363.191c-27.986,27.987-73.363,27.987-101.352-0.002  c-27.986-27.984-27.987-73.362,0-101.349c27.986-27.986,73.365-27.985,101.351,0C391.184,289.828,391.184,335.204,363.197,363.191z"
     id="path50" /><path
     style="fill:#52BBEF;"
     d="M363.197,363.191c2.549-2.549,4.859-5.245,6.943-8.056c-28.055,20.805-67.855,18.494-93.295-6.946  c-25.438-25.436-27.748-65.237-6.944-93.292c-2.812,2.085-5.507,4.395-8.056,6.943c-27.987,27.987-27.986,73.364,0,101.349  C289.834,391.178,335.211,391.178,363.197,363.191z"
     id="path52" /><g
     id="g60"><circle
       style="fill:#D9EAFC;"
       cx="324.83"
       cy="264.53"
       r="12"
       id="circle56" /><circle
       style="fill:#D9EAFC;"
       cx="350.04"
       cy="277"
       r="8.5"
       id="circle58" /></g><g
     id="g62" /><g
     id="g64" /><g
     id="g66" /><g
     id="g68" /><g
     id="g70" /><g
     id="g72" /><g
     id="g74" /><g
     id="g76" /><g
     id="g78" /><g
     id="g80" /><g
     id="g82" /><g
     id="g84" /><g
     id="g86" /><g
     id="g88" /><g
     id="g90" /></svg>