<svg id="icons" enable-background="new 0 0 64 64" height="512" viewBox="0 0 64 64" width="512" xmlns="http://www.w3.org/2000/svg"><path d="m62.995 8.005h-61.99v50.99h62v-50.99z" fill="#e6e9ed"/><path d="m5.015 12.015h54v25.99h-54z" fill="#5d9cec"/><path d="m62.995 6.005v2h-61.99-.01v-2c0-1.11.89-2 2-2h58c1.1 0 2 .89 2 2z" fill="#ccd1d9"/><path d="m12.515 43.005c1.66 0 3 1.34 3 3 0 1.65-1.34 3-3 3s-3-1.35-3-3c0-1.66 1.339-3 3-3z" fill="#5d9cec"/><path d="m51.475 43.005c1.66 0 3 1.34 3 3 0 1.65-1.34 3-3 3-1.649 0-3-1.35-3-3 0-1.66 1.35-3 3-3z" fill="#5d9cec"/><path d="m31.995 43.005c1.66 0 3 1.34 3 3 0 1.65-1.34 3-3 3s-3-1.35-3-3c0-1.66 1.34-3 3-3z" fill="#5d9cec"/><path d="m27.985 30.005c0 1.65-1.351 3-3 3h-2.99v-3h2.99c1.649 0 3-1.35 3-3z" fill="#545c66"/><path d="m21.995 18.006c.55 0 1 .45 1 1v1c0 .55-.45 1-1 1h-4c-.55 0-1-.45-1-1v-1c0-.55.45-1 1-1z" fill="#ccd1d9"/><path d="m11.008 27.005c-.55 0-1-.45-1-1v-2c0-.55.45-1 1-1h17.979c.55 0 1 .45 1 1v1 1.5s-.45.5-1 .5z" fill="#ccd1d9"/><path d="m21.995 30.005v3l-2-1-2 1v-3l2-1z" fill="#434a54"/><path d="m27.985 26.005v1c0 1.65-1.351 3-3 3h-2.99l-2-1-2 1h-2.99c-1.65 0-3-1.35-3-3v-1-3c0-1.65 1.35-3 3-3h1.99 6 1.99c1.649 0 3 1.35 3 3z" fill="#656d78"/><path d="m17.995 30.005v3h-2.99c-1.65 0-3-1.35-3-3v-3c0 1.65 1.35 3 3 3z" fill="#545c66"/><path d="m4.026 7.004c-.553 0-1.005-.447-1.005-1s.442-1 .994-1h.011c.552 0 1 .447 1 1s-.448 1-1 1z" fill="#e6e9ed"/><path d="m7.026 7.004c-.553 0-1.005-.447-1.005-1s.442-1 .994-1h.011c.552 0 1 .447 1 1s-.448 1-1 1z" fill="#e6e9ed"/><path d="m10.026 7.004c-.553 0-1.005-.447-1.005-1s.442-1 .994-1h.011c.552 0 1 .447 1 1s-.448 1-1 1z" fill="#e6e9ed"/><path d="m19.016 53.014h-12.995c-.553 0-1-.447-1-1s.447-1 1-1h12.994c.553 0 1 .447 1 1s-.447 1-.999 1z" fill="#ccd1d9"/><path d="m61.999 59.995h-59.994c-.553 0-1-.447-1-1s.447-1 1-1h59.994c.553 0 1 .447 1 1s-.447 1-1 1z" fill="#e6e9ed"/><path d="m58.014 53.014h-12.994c-.553 0-1-.447-1-1s.447-1 1-1h12.994c.553 0 1 .447 1 1s-.448 1-1 1z" fill="#ccd1d9"/><path d="m38.502 53.014h-12.994c-.553 0-1-.447-1-1s.447-1 1-1h12.994c.553 0 1 .447 1 1s-.447 1-1 1z" fill="#ccd1d9"/><path d="m35.52 56.014h-7.031c-.553 0-1-.447-1-1s.447-1 1-1h7.031c.553 0 1 .447 1 1s-.448 1-1 1z" fill="#ccd1d9"/><path d="m55.02 56.014h-7.006c-.553 0-1-.447-1-1s.447-1 1-1h7.006c.553 0 1 .447 1 1s-.448 1-1 1z" fill="#ccd1d9"/><path d="m16.02 56.014h-6.999c-.553 0-1-.447-1-1s.447-1 1-1h6.998c.553 0 1 .447 1 1s-.447 1-.999 1z" fill="#ccd1d9"/><path d="m59.02 39.007h-54c-.553 0-1-.447-1-1v-25.987c0-.553.447-1 1-1h54c.553 0 1 .447 1 1v25.987c0 .553-.448 1-1 1zm-53-2h52v-23.987h-52z" fill="#5d9cec"/><g fill="#4a89dc"><path d="m54.008 20.007h-17.996c-.553 0-1-.447-1-1s.447-1 1-1h17.996c.553 0 1 .447 1 1s-.447 1-1 1z"/><path d="m54.008 23.015h-17.996c-.553 0-1-.447-1-1s.447-1 1-1h17.996c.553 0 1 .447 1 1s-.447 1-1 1z"/><path d="m45.009 26.022h-8.997c-.553 0-1-.447-1-1s.447-1 1-1h8.997c.553 0 1 .447 1 1s-.447 1-1 1z"/><path d="m41.005 31.015h-4.991c-.553 0-1-.447-1-1s.447-1 1-1h4.991c.553 0 1 .447 1 1s-.447 1-1 1z"/><path d="m44.999 30.015h-1.004c-.553 0-1-.447-1-1s.447-1 1-1h1.004c.553 0 1 .447 1 1s-.447 1-1 1z"/><path d="m45 32.015c-.366 0-.719-.202-.895-.552l-1.004-2c-.248-.493-.049-1.094.445-1.342.494-.247 1.094-.048 1.342.445l1.004 2c.248.493.049 1.094-.445 1.342-.143.072-.297.107-.447.107z"/><path d="m44.999 32.015h-1c-.553 0-1-.447-1-1s.447-1 1-1h1c.553 0 1 .447 1 1s-.447 1-1 1z"/></g><path d="m23.993 26.009h-7.99c-.553 0-1-.447-1-1s.447-1 1-1h7.99c.553 0 1 .447 1 1s-.447 1-1 1z" fill="#545c66"/></svg>