<svg height="512" viewBox="0 0 64 64" width="512" xmlns="http://www.w3.org/2000/svg"><path d="m49 3h-30v14a2 2 0 0 1 -2 2h-14v40a2 2 0 0 0 2 2h44a2 2 0 0 0 2-2v-54a2 2 0 0 0 -2-2z" fill="#d1e7f8"/><path d="m3 33v26a2 2 0 0 0 2 2h27c-16.029 0-29-12.523-29-28z" fill="#9bc9ff"/><path d="m19 17v-14l-16 16h14a2 2 0 0 0 2-2z" fill="#3d9ae2"/><circle cx="45.535" cy="25.465" fill="#ffcd00" r="14.998"/><circle cx="45.536" cy="25.464" fill="#f1f2f2" r="11"/><path d="m29.272 33.243a2 2 0 0 0 0 2.828l.707.707 4.95 4.95a2 2 0 1 0 2.828-2.828l-2.828-2.828-2.829-2.829a2 2 0 0 0 -2.828 0z" fill="#ff3051"/><path d="m18.494 52.506a3 3 0 0 0 4.243 0l11.485-11.485-4.243-4.243-11.485 11.485a3 3 0 0 0 0 4.243z" fill="#006df0"/><g fill="#ff5023"><path d="m17 46h-6a1 1 0 0 1 0-2h6a1 1 0 0 1 0 2z"/><path d="m15 28h-4a1 1 0 0 1 0-2h4a1 1 0 0 1 0 2z"/><path d="m15 34h-4a1 1 0 0 1 0-2h4a1 1 0 0 1 0 2z"/><path d="m15 40h-4a1 1 0 0 1 0-2h4a1 1 0 0 1 0 2z"/><path d="m23 40h-2a1 1 0 0 1 0-2h2a1 1 0 0 1 0 2z"/><path d="m25 34h-4a1 1 0 0 1 0-2h4a1 1 0 0 1 0 2z"/></g><path d="m51.192 19.808a7.945 7.945 0 0 0 -5.657-2.338 1 1 0 0 0 0 2 5.982 5.982 0 0 1 6 5.994 1 1 0 0 0 2 0 7.944 7.944 0 0 0 -2.343-5.656z" fill="#ebbf00"/><path d="m21 28h6a1 1 0 0 0 0-2h-6a1 1 0 0 0 0 2z" fill="#ff5023"/></svg>