<?xml version="1.0" encoding="iso-8859-1"?>
<!-- Generator: Adobe Illustrator 21.0.0, SVG Export Plug-In . SVG Version: 6.00 Build 0)  -->
<svg xmlns="http://www.w3.org/2000/svg" xmlns:xlink="http://www.w3.org/1999/xlink" version="1.1" id="Capa_1" x="0px" y="0px" viewBox="0 0 512 512" style="enable-background:new 0 0 512 512;" xml:space="preserve" width="512" height="512">
<g>
	<g>
		<g>
			<g>
				<g>
					<g>
						<g>
							<g>
								<g>
									<g>
										<g>
											<circle style="fill:#555A66;" cx="256" cy="256" r="256"/>
										</g>
									</g>
								</g>
							</g>
						</g>
					</g>
				</g>
			</g>
		</g>
	</g>
	<path style="fill:#333940;" d="M512,256c0-22.352-2.872-44.032-8.254-64.699l-67.094-67.094L75.348,387.792l115.953,115.953   C211.968,509.128,233.648,512,256,512C397.385,512,512,397.385,512,256z"/>
	<g>
		<rect x="75.348" y="124.208" style="fill:#FFFFFF;" width="361.303" height="263.585"/>
	</g>
	<g>
		<rect x="255.905" y="124.208" style="fill:#E9EDF5;" width="180.747" height="263.585"/>
	</g>
	<g>
		<path style="fill:#65B1FC;" d="M404.102,176.5H107.898c-7.976,0-14.441-6.466-14.441-14.441v-1.566    c0-7.976,6.466-14.441,14.441-14.441h296.203c7.976,0,14.441,6.466,14.441,14.441v1.566    C418.543,170.034,412.077,176.5,404.102,176.5z"/>
	</g>
	<g>
		<path style="fill:#3992EA;" d="M404.102,146.051H255.905V176.5h148.197c7.976,0,14.441-6.466,14.441-14.441v-1.566    C418.543,152.517,412.077,146.051,404.102,146.051z"/>
	</g>
	<g>
		<rect x="93.457" y="199" style="fill:#E9EDF5;" width="325.086" height="166.56"/>
	</g>
	<g>
		<rect x="255.905" y="199" style="fill:#DCE1EB;" width="162.638" height="166.561"/>
	</g>
	<g>
		<g>
			<rect x="112.76" y="220.404" style="fill:#AFB4C8;" width="79.24" height="23.859"/>
		</g>
	</g>
	<g>
		<g>
			<rect x="112.76" y="270.351" style="fill:#AFB4C8;" width="79.24" height="23.859"/>
		</g>
	</g>
	<g>
		<g>
			<rect x="112.76" y="320.416" style="fill:#AFB4C8;" width="79.24" height="23.859"/>
		</g>
	</g>
	<g>
		<g>
			<rect x="210.38" y="220.404" style="fill:#AFB4C8;" width="79.24" height="23.859"/>
		</g>
	</g>
	<g>
		<g>
			<rect x="255.905" y="220.404" style="fill:#9196AA;" width="33.715" height="23.859"/>
		</g>
	</g>
	<g>
		<g>
			<rect x="210.38" y="270.351" style="fill:#AFB4C8;" width="79.24" height="23.859"/>
		</g>
	</g>
	<g>
		<g>
			<rect x="255.905" y="270.351" style="fill:#9196AA;" width="33.715" height="23.859"/>
		</g>
	</g>
	<g>
		<g>
			<rect x="210.38" y="320.416" style="fill:#AFB4C8;" width="79.24" height="23.859"/>
		</g>
	</g>
	<g>
		<g>
			<rect x="255.905" y="320.416" style="fill:#9196AA;" width="33.715" height="23.859"/>
		</g>
	</g>
	<g>
		<rect x="322.129" y="220.404" style="fill:#FF7045;" width="75" height="123.871"/>
	</g>
</g>















</svg>
