<svg height="512" viewBox="0 0 64 64" width="512" xmlns="http://www.w3.org/2000/svg"><g id="flat"><rect fill="#55b56a" height="58" rx="2" width="58" x="3" y="3"/><rect fill="#394d5c" height="24" rx="2" width="24" x="33" y="15"/><circle cx="45" cy="27" fill="#7d8d9c" r="8"/><path d="m9 14h6v18h-6z" fill="#394d5c"/><g fill="#fcf05a"><path d="m6 14h3v2h-3z"/><path d="m6 18h3v2h-3z"/><path d="m6 22h3v2h-3z"/><path d="m6 26h3v2h-3z"/><path d="m6 30h3v2h-3z"/><path d="m15 14h3v2h-3z"/><path d="m15 18h3v2h-3z"/><path d="m15 22h3v2h-3z"/><path d="m15 26h3v2h-3z"/><path d="m15 30h3v2h-3z"/></g><path d="m9 34h6v18h-6z" fill="#394d5c"/><path d="m6 34h3v2h-3z" fill="#fcf05a"/><path d="m6 38h3v2h-3z" fill="#fcf05a"/><path d="m6 42h3v2h-3z" fill="#fcf05a"/><path d="m6 46h3v2h-3z" fill="#fcf05a"/><path d="m6 50h3v2h-3z" fill="#fcf05a"/><path d="m15 34h3v2h-3z" fill="#fcf05a"/><path d="m15 38h3v2h-3z" fill="#fcf05a"/><path d="m15 42h3v2h-3z" fill="#fcf05a"/><path d="m15 46h3v2h-3z" fill="#fcf05a"/><path d="m15 50h3v2h-3z" fill="#fcf05a"/><circle cx="9" cy="9" fill="#c8d952" r="2"/><circle cx="55" cy="9" fill="#c8d952" r="2"/><path d="m14 58h-8v-4h2v2h6z" fill="#c8d952"/><path d="m16 56h2v2h-2z" fill="#c8d952"/><path d="m15 7h12v4h-12z" fill="#f4f4e6"/><path d="m31 7h12v4h-12z" fill="#f4f4e6"/><circle cx="23" cy="17" fill="#c8d952" r="2"/><circle cx="23" cy="25" fill="#c8d952" r="2"/><circle cx="23" cy="45" fill="#c8d952" r="2"/><circle cx="23" cy="53" fill="#c8d952" r="2"/><rect fill="#f4f4e6" height="8" rx="1" width="8" x="21" y="31"/><path d="m28 16h2v2h-2z" fill="#fcf05a"/><path d="m28 20h2v2h-2z" fill="#fcf05a"/><path d="m28 24h2v2h-2z" fill="#fcf05a"/><path d="m50 26h-2.586l2.293-2.293-1.414-1.414-2.293 2.293v-2.586h-2v2.586l-2.293-2.293-1.414 1.414 2.293 2.293h-2.586v2h2.586l-2.293 2.293 1.414 1.414 2.293-2.293v2.586h2v-2.586l2.293 2.293 1.414-1.414-2.293-2.293h2.586z" fill="#f4f4e6"/><path d="m36 18h2v2h-2z" fill="#7d8d9c"/><path d="m52 18h2v2h-2z" fill="#7d8d9c"/><path d="m52 34h2v2h-2z" fill="#7d8d9c"/><path d="m36 34h2v2h-2z" fill="#7d8d9c"/><path d="m29 43h28v4h-28z" fill="#f4f4e6"/><path d="m29 47h28v4h-28z" fill="#7d8d9c"/><path d="m58 58h-11v-2h9v-2h2z" fill="#c8d952"/><path d="m43 56h2v2h-2z" fill="#c8d952"/><path d="m28 57h12v4h-12z" fill="#c8d952"/><circle cx="45" cy="27" fill="#5a6470" r="2"/></g></svg>