<svg height="512" viewBox="0 0 64 64" width="512" xmlns="http://www.w3.org/2000/svg"><g id="flat"><path d="m9 58a3 3 0 1 1 3-3 3 3 0 0 1 -3 3zm0-4a1 1 0 1 0 1 1 1 1 0 0 0 -1-1z"/><path d="m61 12v-3a6 6 0 0 0 -6-6h-46a6 6 0 0 0 -6 6v3a4 4 0 0 1 0 8v35a6 6 0 0 0 6 6h6v-6h4v6h32v-6h4v6a6 6 0 0 0 6-6v-35a4 4 0 0 1 0-8z" fill="#55b56a"/><path d="m17 13h30v28h-30z" fill="#7d8d9c"/><path d="m8 11h-2v-2a3 3 0 0 1 3-3h2v2h-2a1 1 0 0 0 -1 1z" fill="#72edc5"/><path d="m16 8h2v2h-2z" fill="#fcf05a"/><path d="m20 8h2v2h-2z" fill="#fcf05a"/><path d="m24 8h2v2h-2z" fill="#fcf05a"/><path d="m28 8h2v2h-2z" fill="#fcf05a"/><path d="m32 8h2v2h-2z" fill="#fcf05a"/><path d="m37 9h8v4h-8z" fill="#fcf05a"/><g fill="#f4f4e6"><path d="m11 13h6v4h-6z"/><path d="m11 21h6v4h-6z"/><path d="m11 29h6v4h-6z"/><path d="m11 37h6v4h-6z"/><path d="m47 13h6v4h-6z"/><path d="m47 21h6v4h-6z"/><path d="m47 29h6v4h-6z"/><path d="m47 37h6v4h-6z"/></g><path d="m21 17h22v20h-22z" fill="#394d5c"/><path d="m24 20h2v2h-2z" fill="#f4f4e6"/><path d="m8 40h3v-2h-3v-6h3v-2h-3v-6h3v-2h-5v29h17v-2h-15z" fill="#72edc5"/><path d="m53 22v2h3v6h-3v2h3v6h-3v2h3v9h-15v2h17v-29z" fill="#72edc5"/><path d="m31 49h-2v-3.414l2-2v-2.586h2v3.414l-2 2z" fill="#f4f4e6"/><path d="m26 49h-2v-3.414l2-2v-2.586h2v3.414l-2 2z" fill="#f4f4e6"/><path d="m39 49h-2v-2.586l-2-2v-3.414h2v2.586l2 2z" fill="#f4f4e6"/><path d="m44 49h-2v-2.586l-2-2v-3.414h2v2.586l2 2z" fill="#f4f4e6"/><path d="m10 44h2v2h-2z" fill="#fcf05a"/><path d="m52 44h2v2h-2z" fill="#fcf05a"/><path d="m48 44h2v2h-2z" fill="#fcf05a"/><path d="m58 11h-2v-2a1 1 0 0 0 -1-1h-2v-2h2a3 3 0 0 1 3 3z" fill="#72edc5"/><path d="m40 34h-5v-2h3v-4h2z" fill="#f4f4e6"/><path d="m31 32h2v2h-2z" fill="#f4f4e6"/><path d="m23 49h4v8h-4z" fill="#fcf05a"/><path d="m27 49h4v8h-4z" fill="#f9bb4b"/><path d="m31 49h4v8h-4z" fill="#fcf05a"/><path d="m35 49h4v8h-4z" fill="#f9bb4b"/><path d="m39 49h4v8h-4z" fill="#fcf05a"/><path d="m43 49h4v8h-4z" fill="#f9bb4b"/></g></svg>