<svg height="512pt" viewBox="0 -76 512 512" width="512pt" xmlns="http://www.w3.org/2000/svg"><path d="m482 120v30h30v150h-30v60h-61l-15-30-15 30h-30l-15-30-15 30h-30l-15-30-15 30h-30l-15-30-15 30h-30l-15-30-15 30h-30l-15-30-15 30h-61v-60h-30v-150h30v-30h-30v-120h512v120zm0 0" fill="#57d9ad"/><path d="m482 120v30h30v150h-30v60h-61l-15-30-15 30h-30l-15-30-15 30h-30l-15-30-15 30h-15v-360h256v120zm0 0" fill="#26bfa6"/><path d="m151 270h30v90h-30zm0 0" fill="#ffda2d"/><path d="m91 270h30v90h-30zm0 0" fill="#ffda2d"/><path d="m271 270h30v90h-30zm0 0" fill="#fdbf00"/><path d="m211 270h30v90h-30zm0 0" fill="#ffda2d"/><path d="m391 270h30v90h-30zm0 0" fill="#fdbf00"/><path d="m331 270h30v90h-30zm0 0" fill="#fdbf00"/><path d="m181 210h-90v-150h90zm0 0" fill="#4a696f"/><path d="m211 60v150h90v-150zm0 0" fill="#4a696f"/><g fill="#384949"><path d="m421 210h-90v-150h90zm0 0"/><path d="m256 60h45v150h-45zm0 0"/></g></svg>