<?xml version="1.0" standalone="no"?><!DOCTYPE svg PUBLIC "-//W3C//DTD SVG 1.1//EN" "http://www.w3.org/Graphics/SVG/1.1/DTD/svg11.dtd"><svg t="1558429568253" class="icon" style="" viewBox="0 0 1026 1024" version="1.1" xmlns="http://www.w3.org/2000/svg" p-id="2989" xmlns:xlink="http://www.w3.org/1999/xlink" width="16.03125" height="16"><defs><style type="text/css"></style></defs><path d="M511.931529 1023.863058a511.931529 511.931529 0 1 1 511.931529-511.931529 511.931529 511.931529 0 0 1-511.931529 511.931529zM511.931529 63.991441a447.940088 447.940088 0 1 0 447.940088 447.940088 447.940088 447.940088 0 0 0-447.940088-447.940088z" p-id="2990"></path><path d="M994.426995 543.92725h-959.871617a31.995721 31.995721 0 1 1 0-63.991441h959.871617a31.995721 31.995721 0 0 1 0 63.991441z" p-id="2991"></path><path d="M511.931529 1023.863058a33.275549 33.275549 0 0 1-23.676833-10.23863A767.897294 767.897294 0 0 1 290.521143 511.931529 767.897294 767.897294 0 0 1 490.814354 10.238631a33.915464 33.915464 0 0 1 47.353666 0A767.897294 767.897294 0 0 1 738.461231 511.931529a767.897294 767.897294 0 0 1-200.293211 502.332813A32.635635 32.635635 0 0 1 511.931529 1023.863058zM511.931529 80.629216A707.745339 707.745339 0 0 0 354.512584 511.931529 707.105425 707.105425 0 0 0 511.931529 943.233842 700.066366 700.066366 0 0 0 674.46979 511.931529 699.426452 699.426452 0 0 0 511.931529 80.629216z" p-id="2992"></path></svg>