<?xml version="1.0" standalone="no"?><!DOCTYPE svg PUBLIC "-//W3C//DTD SVG 1.1//EN" "http://www.w3.org/Graphics/SVG/1.1/DTD/svg11.dtd"><svg t="1553194782373" class="icon" style="" viewBox="0 0 1024 1024" version="1.1" xmlns="http://www.w3.org/2000/svg" p-id="4180" xmlns:xlink="http://www.w3.org/1999/xlink" width="64" height="64"><defs><style type="text/css"></style></defs><path d="M763.648 968.96H261.504C147.456 968.96 55.04 876.544 55.04 762.496V260.352c0-114.048 92.416-206.464 206.464-206.464h502.144c114.048 0 206.464 92.416 206.464 206.464v502.144c-0.128 114.048-92.416 206.464-206.464 206.464z" fill="#ADADAD" p-id="4181"></path><path d="M835.328 496c0-4.096-3.072-7.552-7.168-8.064l-48-6.016c-9.472-1.152-16.64-8.576-18.432-17.92 0-0.128 0-0.256-0.128-0.384-1.792-9.216 2.048-18.688 10.368-23.424l42.368-24.064c3.456-2.048 4.992-6.272 3.584-9.984l-7.424-19.712c-1.408-3.84-5.504-6.016-9.472-5.12l-47.104 10.752c-9.344 2.176-18.688-2.304-23.552-10.624-0.128-0.128-0.128-0.256-0.256-0.384-4.736-8.064-4.352-18.176 1.792-25.344l31.616-36.992c2.56-3.072 2.56-7.552 0-10.624l-13.696-16c-2.688-3.072-7.168-3.712-10.624-1.536l-40.704 26.24c-8.064 5.12-18.304 4.224-25.728-1.92-0.128-0.128-0.256-0.128-0.256-0.256-7.296-6.016-10.368-15.616-7.04-24.448l17.024-45.696c1.408-3.712-0.128-8.064-3.712-9.984l-18.304-10.368c-3.584-2.048-8.064-1.024-10.496 2.176l-29.184 38.4c-5.76 7.552-15.616 10.112-24.576 7.04-0.128 0-0.256-0.128-0.512-0.128-8.96-2.944-15.232-11.136-15.232-20.608l0.384-48.64c0-3.968-2.816-7.424-6.784-8.192l-20.736-3.456c-4.096-0.64-7.936 1.792-9.088 5.632l-19.072 61.696c-4.224-0.256-8.32-0.64-12.544-0.64-6.656 0-13.184 0.512-19.84 1.024l-21.76-60.672c-1.408-3.84-5.248-6.016-9.216-5.248l-20.608 3.84c-3.968 0.768-6.912 4.352-6.656 8.448l2.304 48.256c0.512 9.472-5.504 17.792-14.336 21.248-0.128 0-0.256 0.128-0.512 0.128-8.832 3.456-18.816 1.28-24.96-6.016L366.08 230.912c-2.56-3.072-7.04-3.84-10.496-1.792l-18.048 10.624c-3.584 2.048-4.992 6.4-3.328 10.24l18.688 44.544c3.712 8.832 0.896 18.816-6.4 24.96-0.128 0.128-0.256 0.256-0.384 0.256-7.168 6.144-17.152 7.424-25.216 2.688l-41.984-24.704c-3.456-2.048-7.936-1.28-10.496 1.92l-13.312 16.256c-2.56 3.2-2.432 7.808 0.256 10.752l32.896 35.456c6.4 7.04 7.296 17.28 2.688 25.6-0.128 0.128-0.128 0.256-0.256 0.384-4.608 8.32-13.568 12.928-22.912 11.264l-48-8.832c-3.968-0.768-7.808 1.536-9.216 5.376l-6.912 19.84c-1.408 3.84 0.384 8.064 3.968 9.984l43.008 22.144c8.448 4.352 12.8 13.824 11.264 23.168 0 0.128 0 0.256-0.128 0.512-1.536 9.344-8.32 16.768-17.664 18.304l-48 8.064c-3.968 0.64-6.912 4.096-6.784 8.192l0.256 20.992c0 4.096 3.072 7.552 7.168 8.064l48 6.016c9.472 1.152 16.64 8.576 18.432 17.92 0 0.128 0 0.256 0.128 0.384 1.792 9.216-2.048 18.688-10.368 23.424L210.816 606.72c-3.456 2.048-4.992 6.272-3.584 9.984l7.424 19.584c1.408 3.84 5.504 6.016 9.472 5.12l47.104-10.752c9.344-2.176 18.688 2.304 23.552 10.624 0.128 0.128 0.128 0.256 0.256 0.384 4.736 8.064 4.352 18.176-1.792 25.344L261.76 704c-2.56 3.072-2.56 7.552 0 10.624l13.696 16c2.688 3.072 7.168 3.712 10.624 1.536l40.704-26.24c8.064-5.12 18.304-4.224 25.728 1.92 0.128 0.128 0.256 0.128 0.256 0.256 7.296 6.016 10.368 15.616 7.04 24.448L342.784 778.24c-1.408 3.712 0.128 8.064 3.712 9.984l18.304 10.368c3.584 2.048 8.064 1.024 10.496-2.176l29.184-38.4c5.76-7.552 15.616-10.112 24.576-7.04 0.128 0 0.256 0.128 0.512 0.128 8.96 2.944 15.232 11.136 15.232 20.608l-0.384 48.64c0 3.968 2.816 7.424 6.784 8.192l20.736 3.456c4.096 0.64 7.936-1.792 9.088-5.632l19.072-61.696c4.224 0.256 8.32 0.64 12.544 0.64 6.656 0 13.184-0.512 19.84-1.024l21.632 60.928c1.408 3.84 5.248 6.016 9.216 5.248l20.608-3.84c3.968-0.768 6.912-4.352 6.656-8.448l-2.304-48.256c-0.512-9.472 5.504-17.792 14.336-21.248 0.128 0 0.256-0.128 0.512-0.128 8.832-3.456 18.816-1.28 24.96 6.016l30.976 37.504c2.56 3.072 7.04 3.84 10.496 1.792l18.048-10.624c3.456-2.048 4.992-6.4 3.328-10.24L672 728.448c-3.712-8.832-0.896-18.816 6.4-24.96 0.128-0.128 0.256-0.256 0.384-0.256 7.168-6.144 17.152-7.424 25.216-2.688l41.984 24.704c3.456 2.048 7.936 1.28 10.496-1.92l13.312-16.256c2.56-3.2 2.432-7.808-0.256-10.752l-32.896-35.456c-6.4-7.04-7.296-17.28-2.688-25.6 0.128-0.128 0.128-0.256 0.256-0.384 4.608-8.32 13.568-12.928 22.912-11.264l48 8.832c3.968 0.768 7.808-1.536 9.216-5.376l6.912-19.84c1.408-3.84-0.384-8.064-3.968-9.984l-43.008-22.144c-8.448-4.352-12.8-13.824-11.264-23.168 0-0.128 0-0.256 0.128-0.512 1.536-9.344 8.32-16.768 17.664-18.304l48-8.064c3.968-0.64 6.912-4.096 6.784-8.192l-0.256-20.864z m-533.76 20.864c0-57.984 23.296-110.592 60.544-149.376 13.824-14.336 36.992-11.264 46.464 5.888l72.32 131.456c4.352 7.68 3.84 16.896-0.768 24.32l-80.896 124.416c-10.24 15.872-33.152 18.176-45.44 4.096-32.512-37.888-52.224-87.168-52.224-140.8z m423.168 60.672c-26.24 89.6-109.056 155.264-207.104 155.264-24.448 0-48-4.224-69.888-11.648-15.744-5.376-21.76-24.704-12.672-38.656l83.968-129.28c5.504-8.448 14.72-13.44 24.832-13.44H697.6c19.2 0 32.768 19.2 27.136 37.76z m-27.264-83.712H541.44c-8.704 0-16.64-4.608-20.736-12.288l-73.088-132.48c-9.216-16.896 0.512-37.504 19.456-42.112 16.128-3.84 33.152-5.888 50.56-5.888 98.048 0 180.736 65.408 207.104 155.008 5.632 18.816-7.936 37.76-27.264 37.76z" fill="#FFFFFF" p-id="4182"></path></svg>