<?xml version="1.0" standalone="no"?><!DOCTYPE svg PUBLIC "-//W3C//DTD SVG 1.1//EN" "http://www.w3.org/Graphics/SVG/1.1/DTD/svg11.dtd"><svg t="1553190188063" class="icon" style="" viewBox="0 0 1024 1024" version="1.1" xmlns="http://www.w3.org/2000/svg" p-id="4425" xmlns:xlink="http://www.w3.org/1999/xlink" width="64" height="64"><defs><style type="text/css"></style></defs><path d="M512 0C229.215086 0 0 229.231543 0 512c0 282.784914 229.215086 512 512 512s512-229.215086 512-512C1024 229.231543 794.784914 0 512 0zM512 950.857143C269.999543 950.857143 73.142857 754.000457 73.142857 512 73.142857 270.017829 269.999543 73.142857 512 73.142857s438.857143 196.874971 438.857143 438.857143C950.857143 754.000457 754.000457 950.857143 512 950.857143z" p-id="4426" fill="#666666"></path><path d="M779.785143 237.321143l22.749257-42.106514c0.071314-0.142629 0.107886-0.321829 0.250514-0.446171l0.786286-1.4464-0.250514-0.142629c0.107886-0.411429 0.393143-0.6784 0.427886-1.089829 0.643657-4.481829-2.464914-8.5888-6.857143-9.214171-3.607771-0.535771-6.857143 1.4464-8.321829 4.534857l-23.963429 36.106971C697.000229 164.231314 608.749714 127.981714 512 127.981714 300.2496 127.981714 128 300.2496 128 512c0 9.892571 0.356571 19.713829 1.106286 29.500343 0.786286 10.071771 10.499657 17.285486 19.642514 16.8576 10.071771-0.786286 17.607314-9.570743 16.8576-19.642514C164.928 529.839543 164.571429 520.963657 164.571429 512c0-191.588571 155.856457-347.446857 347.428571-347.446857 89.285486 0 170.570971 34.161371 232.1792 89.749943L545.106286 554.2144C534.606629 550.857143 523.607771 548.571429 512 548.571429c-60.534857 0-109.714286 49.106286-109.714286 109.677714s49.179429 109.714286 109.714286 109.714286 109.714286-49.142857 109.714286-109.714286c0-28.714057-11.285943-54.6432-29.392457-74.177829l169.285486-313.142857C821.999543 333.463771 859.392 418.3936 859.392 512c0 8.963657-0.285257 17.892571-0.963657 26.7136-0.786286 10.071771 6.749257 18.856229 16.821029 19.642514 0.464457 0 0.928914 0.036571 1.428114 0.036571 9.428114 0 17.464686-7.285029 18.177829-16.892343 0.749714-9.713371 1.106286-19.607771 1.106286-29.500343C895.963429 404.375771 851.320686 307.106743 779.785143 237.321143zM512 694.820571c-20.178286 0-36.571429-16.393143-36.571429-36.571429 0-20.143543 16.393143-36.534857 36.571429-36.534857s36.571429 16.393143 36.571429 36.534857C548.571429 678.429257 532.178286 694.820571 512 694.820571z" p-id="4427" fill="#666666"></path></svg>