<svg height="512pt" viewBox="-11 0 512 512" width="512pt" xmlns="http://www.w3.org/2000/svg"><path d="m475.9375 0h-403.808594c-7.214844 0-13.113281 5.902344-13.113281 13.113281v68.851563h357.90625c7.214844 0 13.113281 5.898437 13.113281 13.113281v334.957031h45.902344c7.210938 0 13.113281-5.902344 13.113281-13.113281v-403.808594c0-7.210937-5.902343-13.113281-13.113281-13.113281zm0 0" fill="#d8dce5"/><path d="m412.800781 55.222656h-353.785156v26.742188h357.90625c7.214844 0 13.113281 5.898437 13.113281 13.113281v334.957031h26.785156v-330.792968c.003907-24.273438-19.746093-44.019532-44.019531-44.019532zm0 0" fill="#cacfd8"/><path d="m475.9375 0h-403.808594c-7.214844 0-13.113281 5.902344-13.113281 13.113281v42.109375h430.035156v-42.109375c0-7.210937-5.902343-13.113281-13.113281-13.113281zm0 0" fill="#54a0ff"/><path d="m118.027344 0h-45.898438c-7.214844 0-13.113281 5.902344-13.113281 13.113281v42.109375h59.011719zm0 0" fill="#ff6b6b"/><path d="m103.035156 0h-30.90625c-7.214844 0-13.113281 5.902344-13.113281 13.113281v42.109375h30.90625v-42.109375c0-7.210937 5.902344-13.113281 13.113281-13.113281zm0 0" fill="#ee5253"/><path d="m416.921875 81.964844h-403.808594c-7.210937 0-13.113281 5.902344-13.113281 13.113281v403.808594c0 7.210937 5.902344 13.113281 13.113281 13.113281h403.808594c7.214844 0 13.113281-5.902344 13.113281-13.113281v-403.808594c0-7.214844-5.898437-13.113281-13.113281-13.113281zm0 0" fill="#e4eaf8"/><path d="m30.945312 498.886719v-403.808594c0-7.214844 5.902344-13.113281 13.113282-13.113281h-30.945313c-7.210937 0-13.113281 5.898437-13.113281 13.113281v403.808594c0 7.210937 5.902344 13.113281 13.113281 13.113281h30.945313c-7.210938 0-13.113282-5.902344-13.113282-13.113281zm0 0" fill="#d8dce5"/><path d="m416.921875 81.964844h-403.808594c-7.210937 0-13.113281 5.902344-13.113281 13.113281v42.109375h430.035156v-42.109375c0-7.214844-5.898437-13.113281-13.113281-13.113281zm0 0" fill="#54a0ff"/><path d="m59.015625 81.964844h-45.902344c-7.210937 0-13.113281 5.902344-13.113281 13.113281v42.109375h59.015625zm0 0" fill="#ff6b6b"/><path d="m30.945312 95.078125c0-7.214844 5.902344-13.113281 13.113282-13.113281h-30.945313c-5.691406 0-10.558593 3.683594-12.359375 8.78125-.480468 1.359375-.753906 2.8125-.753906 4.332031v42.109375h30.945312zm0 0" fill="#ee5253"/><path d="m229.605469 408.011719h-29.144531c-4.265626 0-7.726563-3.457031-7.726563-7.726563 0-4.265625 3.460937-7.726562 7.726563-7.726562h29.144531c4.265625 0 7.726562 3.460937 7.726562 7.726562 0 4.269532-3.460937 7.726563-7.726562 7.726563zm0 0" fill="#576574"/><path d="m224.585938 336.535156c-1.976563 0-3.953126-.753906-5.460938-2.261718-3.019531-3.015626-3.019531-7.910157-.003906-10.925782l44.816406-44.824218c3.015625-3.015626 7.910156-3.019532 10.925781 0 3.019531 3.015624 3.019531 7.90625 0 10.925781l-44.8125 44.824219c-1.507812 1.507812-3.488281 2.261718-5.464843 2.261718zm0 0" fill="#576574"/><path d="m231.3125 322.082031c-8.992188-8.992187-23.570312-8.992187-32.5625 0-8.992188 8.992188-8.992188 23.570313 0 32.5625 8.992188 8.988281 23.570312 8.988281 32.5625 0 8.988281-8.992187 8.988281-23.570312 0-32.5625zm0 0" fill="#ff6b6b"/><path d="m228.371094 354.644531c-8.988282-8.992187-8.988282-23.570312 0-32.5625.476562-.472656.972656-.90625 1.472656-1.328125-9.046875-7.621094-22.570312-7.191406-31.089844 1.328125-8.992187 8.992188-8.992187 23.570313 0 32.5625 8.519532 8.519531 22.042969 8.953125 31.089844 1.328125-.5-.421875-1-.855468-1.472656-1.328125zm0 0" fill="#ee5253"/><path d="m317.277344 236.105469c-27.1875-27.179688-63.792969-42.363281-102.261719-42.363281v39.332031h.003906c28.175781 0 54.78125 11.171875 74.449219 30.835937l15.082031-15.082031zm0 0" fill="#15ba8b"/><path d="m112.757812 236.101562 27.808594 27.808594c19.777344-19.773437 46.441406-30.835937 74.449219-30.835937v-39.332031c-36.425781 0-71.847656 13.035156-102.257813 42.359374zm0 0" fill="#11aa7b"/><path d="m109.726562 338.363281c0-27.035156 10.386719-53.996093 30.839844-74.453125l-27.808594-27.808594c-26.859374 26.859376-42.359374 63.339844-42.359374 102.261719zm0 0" fill="#8ac2ff"/><path d="m109.726562 338.363281h-39.328124c0 35.703125 13.152343 70.746094 38.21875 97.949219 2.214843 2.40625 6.003906 2.449219 8.3125.136719l19.660156-19.660157c2.183594-2.183593 2.261718-5.6875.1875-7.976562-8.261719-9.117188-27.050782-33.308594-27.050782-70.449219zm0 0" fill="#54a0ff"/><path d="m144.34375 232.847656c21.289062-20.527344 44.996094-33.199218 69.785156-39.09375-36.117187.210938-71.210937 13.261719-101.375 42.347656l15.636719 15.632813c4.757813-6.699219 10.085937-13.019531 15.953125-18.886719zm0 0" fill="#0e9b6c"/><path d="m101.304688 336.757812c0-31.046874 9.710937-60.5625 27.085937-85.023437l-15.636719-15.632813c-26.855468 26.859376-42.355468 63.339844-42.355468 102.261719h30.925781c-.007813-.535156-.019531-1.070312-.019531-1.605469zm0 0" fill="#6fb1ff"/><path d="m101.324219 338.363281h-30.925781c0 35.703125 13.15625 70.746094 38.21875 97.949219 2.214843 2.40625 6.003906 2.449219 8.316406.136719l12.804687-12.804688c-18.363281-25.011719-28.082031-54.871093-28.414062-85.28125zm0 0" fill="#338def"/><path d="m317.28125 236.101562-27.8125 27.808594c19.117188 19.121094 30.839844 45.527344 30.839844 74.453125h28.640625.6875 10c0-37.929687-14.847657-74.757812-42.355469-102.261719zm0 0" fill="#feca57"/><path d="m320.308594 338.363281c0 26.15625-9.652344 51.1875-27.097656 70.519531-2.050782 2.265626-1.921876 5.753907.242187 7.914063l19.652344 19.652344c2.3125 2.308593 6.097656 2.269531 8.308593-.132813 24.011719-26.066406 38.226563-60.640625 38.226563-97.953125zm0 0" fill="#ff6b6b"/></svg>