<svg id="Capa_1" enable-background="new 0 0 512 512" height="512" viewBox="0 0 512 512" width="512" xmlns="http://www.w3.org/2000/svg"><path d="m128.016 34.325c-15.419 8.922-29.824 19.404-42.995 31.229-52.182 46.849-75.521 135.946-63.475 190.446l106.12 31 157.334-47.333z" fill="#ccf49f"/><path d="m142.159 453.177c-78.659-32.677-129.159-98.177-120.613-197.177h234.454l-69 162.333z" fill="#95d6a4"/><path d="m256 503.75c46.639 0 92.75-10 123.455-33.919l5.878-16.831-23.333-91-106-106-113.841 197.177c18.508 31.156 67.202 50.573 113.841 50.573z" fill="#857e87"/><path d="m385.625 470.875s43.114-24.109 61.16-44.258c40.548-45.273 65.215-105.052 65.215-170.617l-83-32.333-173 32.333s79.623 137.911 123.455 213.831z" fill="#ff8086"/><path d="m383.984 34.325c76.505 44.267 128.016 126.929 128.016 221.675h-256l63-164.333z" fill="#ffa95f"/><path d="m256 0c-46.639 0-90.325 12.534-127.984 34.325l26.924 46.635 101.06 175.04 127.984-221.675c-37.659-21.791-81.345-34.325-127.984-34.325z" fill="#ffe07d"/><path d="m446.784 426.616c-19.901 17.716-42.606 32.348-67.329 43.215 1.553 2.69 3.071 5.319 4.529 7.844 23.563-13.634 44.754-30.91 62.8-51.059z" fill="#e5646e"/><circle cx="256" cy="256" fill="#dad8db" r="173.419"/><circle cx="256" cy="256" fill="#eceaec" r="148.645"/><circle cx="256" cy="256" fill="#fff" r="49.548"/><path d="m214.71 305.548c-2.113 0-4.226-.806-5.839-2.419-3.226-3.226-3.226-8.452 0-11.677l189.935-189.935c3.226-3.226 8.452-3.226 11.677 0 3.226 3.226 3.226 8.452 0 11.677l-189.935 189.935c-1.613 1.613-3.725 2.419-5.838 2.419z" fill="#5d5360"/><path d="m128.015 477.675c4.316-7.474 9.085-15.735 14.144-24.498-67.403-41.704-113.952-113.805-120.613-197.177h-21.546c0 94.745 51.511 177.408 128.015 221.675z" fill="#78c2a4"/><circle cx="256" cy="256" fill="#6f6571" r="24.774"/><circle cx="256" cy="256" fill="#4b3f4e" r="8.258"/><path d="m0 256h21.546c-.545-6.818-.901-13.688-.901-20.645 0-65.139 24.31-124.617 64.376-169.8-52.183 46.849-85.021 114.794-85.021 190.445z" fill="#b3e59f"/><path d="m142.16 453.177-14.144 24.498c37.659 21.791 81.345 34.325 127.984 34.325s90.325-12.534 127.984-34.325l-4.529-7.844c-31.464 13.83-66.234 21.524-102.81 21.524-49.341 0-95.399-13.993-134.485-38.178z" fill="#6f6571"/></svg>