<svg id="icons" enable-background="new 0 0 64 64" height="512" viewBox="0 0 64 64" width="512" xmlns="http://www.w3.org/2000/svg"><path d="m58.32 26c-.681-3.01-1.87-5.83-3.471-8.359l3.311-3.311-8.48-8.49-3.31 3.31c-2.54-1.6-5.36-2.78-8.37-3.47v-4.68h-12v4.68c-3.01.69-5.83 1.87-8.37 3.471l-3.31-3.311-8.48 8.49 3.311 3.311c-1.601 2.529-2.791 5.349-3.471 8.359h-4.68v12h4.68c.681 3.021 1.87 5.84 3.471 8.37l-3.311 3.31 8.48 8.49 3.31-3.31c2.54 1.6 5.36 2.78 8.37 3.47v4.67h12v-4.67c3.01-.689 5.83-1.87 8.37-3.47l3.31 3.31 8.48-8.49-3.311-3.31c1.601-2.53 2.79-5.35 3.471-8.37h4.68v-12z" fill="#e6e9ed"/><path d="m48 30h-16l11.31-11.31c2.9 2.89 4.69 6.89 4.69 11.31z" fill="#48cfad"/><path d="m32 46c8.83 0 16-7.17 16-16v4.01c0 8.83-7.17 16-16 16-4.42 0-8.42-1.79-11.31-4.689v-4-.01h.01c2.89 2.899 6.89 4.689 11.3 4.689z" fill="#4a89dc"/><path d="m32 30-11.3 11.311h-.01c-2.9-2.891-4.69-6.891-4.69-11.311s1.79-8.42 4.69-11.31z" fill="#ffce54"/><path d="m43.31 18.69-11.31 11.31-11.31-11.31c2.89-2.9 6.89-4.69 11.31-4.69s8.42 1.79 11.31 4.69z" fill="#a0d468"/><path d="m20.69 41.32v4c-2.9-2.9-4.69-6.9-4.69-11.311v-4.009c0 4.42 1.79 8.42 4.69 11.311z" fill="#f6bb42"/><path d="m32 30h16c0 8.83-7.17 16-16 16-4.41 0-8.41-1.79-11.3-4.689z" fill="#5d9cec"/><path d="m38 64h-12c-.553 0-1-.447-1-1v-3.891c-2.536-.652-4.958-1.656-7.218-2.991l-2.753 2.752c-.375.375-1.039.375-1.414 0l-8.485-8.485c-.188-.188-.293-.441-.293-.707s.105-.52.293-.707l2.752-2.753c-1.335-2.26-2.339-4.682-2.991-7.218h-3.891c-.553 0-1-.447-1-1v-12c0-.553.447-1 1-1h3.891c.652-2.536 1.656-4.958 2.991-7.218l-2.752-2.753c-.188-.188-.293-.441-.293-.707s.105-.52.293-.707l8.485-8.485c.375-.375 1.039-.375 1.414 0l2.753 2.752c2.26-1.335 4.682-2.339 7.218-2.991v-3.891c0-.553.447-1 1-1h12c.553 0 1 .447 1 1v3.891c2.536.652 4.958 1.656 7.218 2.991l2.753-2.752c.375-.375 1.039-.375 1.414 0l8.485 8.485c.188.188.293.441.293.707s-.105.52-.293.707l-2.752 2.753c1.335 2.26 2.339 4.682 2.991 7.218h3.891c.553 0 1 .447 1 1v12c0 .553-.447 1-1 1h-3.891c-.652 2.536-1.656 4.958-2.991 7.218l2.752 2.753c.188.188.293.441.293.707s-.105.52-.293.707l-8.485 8.485c-.375.375-1.039.375-1.414 0l-2.753-2.752c-2.26 1.335-4.682 2.339-7.218 2.991v3.891c0 .553-.447 1-1 1zm-11-2h10v-3.678c0-.467.323-.872.778-.976 2.858-.648 5.569-1.771 8.058-3.339.395-.247.909-.192 1.24.14l2.602 2.602 7.071-7.071-2.602-2.602c-.33-.33-.388-.845-.14-1.24 1.567-2.488 2.69-5.199 3.339-8.058.104-.455.509-.778.976-.778h3.678v-10h-3.678c-.467 0-.872-.323-.976-.778-.648-2.858-1.771-5.569-3.339-8.058-.248-.396-.19-.91.14-1.24l2.602-2.602-7.071-7.071-2.602 2.602c-.331.331-.846.387-1.24.14-2.488-1.567-5.199-2.69-8.058-3.339-.455-.104-.778-.509-.778-.976v-3.678h-10v3.678c0 .467-.323.872-.778.976-2.858.648-5.569 1.771-8.058 3.339-.395.247-.908.191-1.24-.14l-2.602-2.602-7.071 7.071 2.602 2.602c.33.33.388.845.14 1.24-1.567 2.488-2.69 5.199-3.339 8.058-.104.455-.509.778-.976.778h-3.678v10h3.678c.467 0 .872.323.976.778.648 2.858 1.771 5.569 3.339 8.058.248.396.19.91-.14 1.24l-2.602 2.602 7.071 7.071 2.602-2.602c.332-.332.846-.387 1.24-.14 2.488 1.567 5.199 2.69 8.058 3.339.455.104.778.509.778.976z" fill="#e6e9ed"/><g fill="#ccd1d9"><path d="m32 56c-13.233 0-24-10.767-24-24 0-.553.447-1 1-1s1 .447 1 1c0 12.131 9.869 22 22 22 .553 0 1 .447 1 1s-.447 1-1 1z"/><path d="m55 33c-.553 0-1-.447-1-1 0-12.131-9.869-22-22-22-.553 0-1-.447-1-1s.447-1 1-1c13.233 0 24 10.767 24 24 0 .553-.447 1-1 1z"/></g></svg>