<?xml version="1.0" encoding="UTF-8" standalone="no"?>
<!-- Generator: Adobe Illustrator 19.0.0, SVG Export Plug-In . SVG Version: 6.00 Build 0)  -->

<svg
   xmlns:dc="http://purl.org/dc/elements/1.1/"
   xmlns:cc="http://creativecommons.org/ns#"
   xmlns:rdf="http://www.w3.org/1999/02/22-rdf-syntax-ns#"
   xmlns:svg="http://www.w3.org/2000/svg"
   xmlns="http://www.w3.org/2000/svg"
   xmlns:sodipodi="http://sodipodi.sourceforge.net/DTD/sodipodi-0.dtd"
   xmlns:inkscape="http://www.inkscape.org/namespaces/inkscape"
   version="1.1"
   id="Capa_1"
   x="0px"
   y="0px"
   viewBox="0 0 58 58"
   style="enable-background:new 0 0 58 58;"
   xml:space="preserve"
   sodipodi:docname="chip.svg"
   inkscape:version="0.92.1 r15371"><metadata
     id="metadata127"><rdf:RDF><cc:Work
         rdf:about=""><dc:format>image/svg+xml</dc:format><dc:type
           rdf:resource="http://purl.org/dc/dcmitype/StillImage" /></cc:Work></rdf:RDF></metadata><defs
     id="defs125" /><sodipodi:namedview
     pagecolor="#ffffff"
     bordercolor="#666666"
     borderopacity="1"
     objecttolerance="10"
     gridtolerance="10"
     guidetolerance="10"
     inkscape:pageopacity="0"
     inkscape:pageshadow="2"
     inkscape:window-width="1920"
     inkscape:window-height="968"
     id="namedview123"
     showgrid="false"
     inkscape:zoom="4.0689655"
     inkscape:cx="-5.4067797"
     inkscape:cy="29"
     inkscape:window-x="0"
     inkscape:window-y="0"
     inkscape:window-maximized="1"
     inkscape:current-layer="Capa_1" /><path
     style="fill:#56a157;stroke-width:0.86206901"
     d="m 46.732904,4 c 0,2.380172 -1.930172,4.310345 -4.310345,4.310345 C 40.042387,8.310345 38.112215,6.380172 38.112215,4 H 4.4915254 V 54 H 38.112215 c 0,-2.380172 1.930172,-4.310345 4.310344,-4.310345 2.380173,0 4.310345,1.930173 4.310345,4.310345 h 7.758621 V 4 Z"
     id="path2"
     inkscape:connector-curvature="0" /><polygon
     style="fill:#ebda6c"
     points="0,0 0,8 8,0 "
     id="polygon4"
     transform="matrix(0.86206897,0,0,0.86206897,4.4915254,4)" /><path
     style="fill:#eddc6e;stroke-width:0.86206901"
     d="M 41.588939,12.62069 H 17.394111 c -2.364655,0 -4.281896,1.917241 -4.281896,4.281896 v 4.769828 c 0,0.713793 0.57931,1.293103 1.293103,1.293103 v 0 c 0.713793,0 1.293104,0.579311 1.293104,1.293104 v 9.482758 c 0,0.713793 -0.579311,1.293104 -1.293104,1.293104 v 0 c -0.713793,0 -1.293103,0.57931 -1.293103,1.293103 v 4.769828 c 0,2.364655 1.917241,4.281896 4.281896,4.281896 h 24.19569 c 2.363793,0 4.281034,-1.917241 4.281034,-4.281896 V 16.902586 c 0,-2.364655 -1.917241,-4.281896 -4.281896,-4.281896 z"
     id="path6"
     inkscape:connector-curvature="0" /><g
     id="g82"
     transform="matrix(0.86206897,0,0,0.86206897,4.4915254,4)"><circle
       style="fill:#eddc6e"
       cx="3"
       cy="50"
       r="1"
       id="circle8" /><circle
       style="fill:#eddc6e"
       cx="3"
       cy="55"
       r="1"
       id="circle10" /><circle
       style="fill:#eddc6e"
       cx="55"
       cy="3"
       r="1"
       id="circle12" /><circle
       style="fill:#eddc6e"
       cx="55"
       cy="55"
       r="1"
       id="circle14" /><circle
       style="fill:#eddc6e"
       cx="5"
       cy="48"
       r="1"
       id="circle16" /><circle
       style="fill:#eddc6e"
       cx="53"
       cy="34"
       r="1"
       id="circle18" /><circle
       style="fill:#eddc6e"
       cx="55"
       cy="36"
       r="1"
       id="circle20" /><circle
       style="fill:#eddc6e"
       cx="53"
       cy="44"
       r="1"
       id="circle22" /><circle
       style="fill:#eddc6e"
       cx="55"
       cy="46"
       r="1"
       id="circle24" /><circle
       style="fill:#eddc6e"
       cx="53"
       cy="24"
       r="1"
       id="circle26" /><circle
       style="fill:#eddc6e"
       cx="55"
       cy="26"
       r="1"
       id="circle28" /><circle
       style="fill:#eddc6e"
       cx="3"
       cy="45"
       r="1"
       id="circle30" /><circle
       style="fill:#eddc6e"
       cx="5"
       cy="43"
       r="1"
       id="circle32" /><circle
       style="fill:#eddc6e"
       cx="3"
       cy="40"
       r="1"
       id="circle34" /><circle
       style="fill:#eddc6e"
       cx="5"
       cy="38"
       r="1"
       id="circle36" /><circle
       style="fill:#eddc6e"
       cx="3"
       cy="35"
       r="1"
       id="circle38" /><circle
       style="fill:#eddc6e"
       cx="5"
       cy="33"
       r="1"
       id="circle40" /><circle
       style="fill:#eddc6e"
       cx="3"
       cy="30"
       r="1"
       id="circle42" /><circle
       style="fill:#eddc6e"
       cx="5"
       cy="28"
       r="1"
       id="circle44" /><circle
       style="fill:#eddc6e"
       cx="3"
       cy="25"
       r="1"
       id="circle46" /><circle
       style="fill:#eddc6e"
       cx="5"
       cy="23"
       r="1"
       id="circle48" /><circle
       style="fill:#eddc6e"
       cx="3"
       cy="10"
       r="1"
       id="circle50" /><circle
       style="fill:#eddc6e"
       cx="16"
       cy="3"
       r="1"
       id="circle52" /><circle
       style="fill:#eddc6e"
       cx="12"
       cy="3"
       r="1"
       id="circle54" /><circle
       style="fill:#eddc6e"
       cx="3"
       cy="13"
       r="1"
       id="circle56" /><circle
       style="fill:#eddc6e"
       cx="36"
       cy="55"
       r="1"
       id="circle58" /><circle
       style="fill:#eddc6e"
       cx="34"
       cy="53"
       r="1"
       id="circle60" /><circle
       style="fill:#eddc6e"
       cx="31"
       cy="55"
       r="1"
       id="circle62" /><circle
       style="fill:#eddc6e"
       cx="29"
       cy="53"
       r="1"
       id="circle64" /><circle
       style="fill:#eddc6e"
       cx="26"
       cy="55"
       r="1"
       id="circle66" /><circle
       style="fill:#eddc6e"
       cx="24"
       cy="53"
       r="1"
       id="circle68" /><circle
       style="fill:#eddc6e"
       cx="21"
       cy="55"
       r="1"
       id="circle70" /><circle
       style="fill:#eddc6e"
       cx="19"
       cy="53"
       r="1"
       id="circle72" /><circle
       style="fill:#eddc6e"
       cx="16"
       cy="55"
       r="1"
       id="circle74" /><circle
       style="fill:#eddc6e"
       cx="14"
       cy="53"
       r="1"
       id="circle76" /><circle
       style="fill:#eddc6e"
       cx="11"
       cy="55"
       r="1"
       id="circle78" /><circle
       style="fill:#eddc6e"
       cx="9"
       cy="53"
       r="1"
       id="circle80" /></g><path
     style="fill:#414141;stroke-width:0.86206901"
     d="M 40.428594,42.793103 H 18.554456 c -1.577586,0 -2.856034,-1.278448 -2.856034,-2.856034 V 18.062931 c 0,-1.577586 1.278448,-2.856034 2.856034,-2.856034 h 21.875 c 1.576724,0 2.855172,1.278448 2.855172,2.856034 v 21.875 c 0,1.576724 -1.278448,2.855172 -2.856034,2.855172 z"
     id="path84"
     inkscape:connector-curvature="0" /><g
     id="g90"
     transform="matrix(0.86206897,0,0,0.86206897,4.4915254,4)"><path
       style="fill:#afb6bb"
       d="m 40.446,24.385 c -1.09,-2.48 -3.927,-3.962 -7.59,-3.962 -2.146,0 -4.434,0.507 -6.614,1.464 -2.862,1.258 -5.25,3.163 -6.725,5.365 -1.567,2.34 -1.938,4.75 -1.044,6.786 1.09,2.481 3.927,3.962 7.59,3.962 2.147,0 4.434,-0.507 6.615,-1.464 2.862,-1.258 5.25,-3.163 6.725,-5.365 1.567,-2.34 1.938,-4.75 1.043,-6.786 z m -2.705,5.674 c -1.266,1.89 -3.35,3.54 -5.868,4.646 -1.929,0.847 -3.938,1.295 -5.81,1.295 -2.845,0 -4.998,-1.034 -5.759,-2.767 -0.609,-1.388 -0.299,-3.116 0.875,-4.868 1.266,-1.891 3.35,-3.541 5.868,-4.646 1.928,-0.848 3.937,-1.296 5.809,-1.296 2.845,0 4.999,1.034 5.759,2.767 0.61,1.387 0.3,3.117 -0.874,4.869 z"
       id="path86"
       inkscape:connector-curvature="0" /><path
       style="fill:#afb6bb"
       d="m 33,28 h -7 c -0.552,0 -1,0.447 -1,1 0,0.553 0.448,1 1,1 h 7 c 0.552,0 1,-0.447 1,-1 0,-0.553 -0.448,-1 -1,-1 z"
       id="path88"
       inkscape:connector-curvature="0" /></g><g
     id="g92"
     transform="matrix(0.86206897,0,0,0.86206897,4.4915254,4)" /><g
     id="g94"
     transform="matrix(0.86206897,0,0,0.86206897,4.4915254,4)" /><g
     id="g96"
     transform="matrix(0.86206897,0,0,0.86206897,4.4915254,4)" /><g
     id="g98"
     transform="matrix(0.86206897,0,0,0.86206897,4.4915254,4)" /><g
     id="g100"
     transform="matrix(0.86206897,0,0,0.86206897,4.4915254,4)" /><g
     id="g102"
     transform="matrix(0.86206897,0,0,0.86206897,4.4915254,4)" /><g
     id="g104"
     transform="matrix(0.86206897,0,0,0.86206897,4.4915254,4)" /><g
     id="g106"
     transform="matrix(0.86206897,0,0,0.86206897,4.4915254,4)" /><g
     id="g108"
     transform="matrix(0.86206897,0,0,0.86206897,4.4915254,4)" /><g
     id="g110"
     transform="matrix(0.86206897,0,0,0.86206897,4.4915254,4)" /><g
     id="g112"
     transform="matrix(0.86206897,0,0,0.86206897,4.4915254,4)" /><g
     id="g114"
     transform="matrix(0.86206897,0,0,0.86206897,4.4915254,4)" /><g
     id="g116"
     transform="matrix(0.86206897,0,0,0.86206897,4.4915254,4)" /><g
     id="g118"
     transform="matrix(0.86206897,0,0,0.86206897,4.4915254,4)" /><g
     id="g120"
     transform="matrix(0.86206897,0,0,0.86206897,4.4915254,4)" /></svg>