<svg id="icons" enable-background="new 0 0 64 64" height="512" viewBox="0 0 64 64" width="512" xmlns="http://www.w3.org/2000/svg"><path d="m57 14.5h-50c-3.3 0-6 2.7-6 6v24 9.01c0 3.3 2.7 6 6 6h8 35 7c.34 0 .67-.029.99-.09 2.83-.47 5.01-2.95 5.01-5.91v-9.01-24c0-3.3-2.7-6-6-6z" fill="#e6e9ed"/><path d="m57 14.5h-50c-3.3 0-6 2.7-6 6v-6c0-3.3 2.7-6 6-6h13v3h3v-3h18v3h3v-3h13c3.3 0 6 2.7 6 6v6c0-3.3-2.7-6-6-6z" fill="#ccd1d9"/><path d="m23 8.5v3h-3v-3-3h3z" fill="#e6e9ed"/><path d="m44 8.5v3h-3v-3-3h3z" fill="#e6e9ed"/><path d="m40 1.5c2.21 0 4 1.79 4 4h-3-18-3c0-2.21 1.79-4 4-4z" fill="#656d78"/><path d="m46.99 52.501c1.109 0 2 .89 2 2 0 1.1-.891 2-2 2-1.101 0-2-.9-2-2 0-1.11.9-2 2-2z" fill="#ccd1d9"/><path d="m17.01 52.501c1.101 0 2 .89 2 2 0 1.1-.899 2-2 2-1.109 0-2-.9-2-2 0-1.11.89-2 2-2z" fill="#ccd1d9"/><path d="m7 61.5c0 .55.45 1 1 1h6c.55 0 1-.45 1-1v-1.991h-8z" fill="#ccd1d9"/><path d="m50 59.509v1.991c0 .55.45 1 1 1h6c.55 0 1-.45 1-1v-1.991z" fill="#ccd1d9"/><path d="m46.99 51.5c1.109 0 2 .89 2 2 0 1.1-.891 2-2 2-1.101 0-2-.9-2-2 0-1.11.9-2 2-2z" fill="#fff"/><path d="m17.01 51.5c1.101 0 2 .89 2 2 0 1.1-.899 2-2 2-1.109 0-2-.9-2-2 0-1.11.89-2 2-2z" fill="#fff"/><path d="m57 18.5h-8-42c-1.1 0-2 .9-2 2v26c0 1.1.9 2 2 2h42 8c1.1 0 2-.9 2-2v-8-10-8c0-1.1-.9-2-2-2z" fill="#656d78"/><path d="m38.029 54.5c-.553 0-1.005-.447-1.005-1s.442-1 .994-1h.011c.552 0 1 .447 1 1s-.448 1-1 1z" fill="#ccd1d9"/><path d="m34.03 54.5c-.553 0-1.005-.447-1.005-1s.442-1 .994-1h.011c.552 0 1 .447 1 1s-.448 1-1 1z" fill="#ccd1d9"/><path d="m30.031 54.5c-.553 0-1.005-.447-1.005-1s.442-1 .994-1h.011c.552 0 1 .447 1 1s-.448 1-1 1z" fill="#ccd1d9"/><path d="m26.032 54.5c-.553 0-1.005-.447-1.005-1s.442-1 .994-1h.011c.552 0 1 .447 1 1s-.448 1-1 1z" fill="#ccd1d9"/><path d="m50 37.498v-8h9v-.998-1.002h-9v-8.998h-1-1v29.996l.001.003.999.001h.999l.001-.004v-8.998h9v-.998-1.002z" fill="#545c66"/><g fill="#a0d468"><path d="m19.006 35.5h-10.006c-.553 0-1-.447-1-1s.447-1 1-1h10.006c.553 0 1 .447 1 1s-.447 1-1 1z"/><path d="m19.006 35.5c-.113 0-.229-.02-.342-.061-.519-.188-.787-.762-.598-1.281l3.998-11c.188-.519.762-.786 1.281-.598s.787.762.598 1.281l-3.998 11c-.147.407-.531.659-.939.659z"/><path d="m30 44.498c-.113 0-.229-.02-.342-.061-.519-.188-.787-.762-.598-1.281l3.998-11c.188-.52.761-.786 1.281-.598.519.188.787.762.598 1.281l-3.998 11c-.147.407-.531.659-.939.659z"/><path d="m30 44.5c-.413 0-.8-.258-.944-.67l-6.996-20c-.182-.521.093-1.092.614-1.274.522-.18 1.092.094 1.274.614l6.996 20c.182.521-.093 1.092-.614 1.274-.109.038-.221.056-.33.056z"/><path d="m44.999 33.498h-11.001c-.553 0-1-.447-1-1s.447-1 1-1h11.001c.553 0 1 .447 1 1s-.447 1-1 1z"/></g><path d="m20 5.5h24v1h-24z" fill="#656d78"/></svg>