<?xml version="1.0" encoding="UTF-8" standalone="no"?>
<svg
   xmlns:dc="http://purl.org/dc/elements/1.1/"
   xmlns:cc="http://creativecommons.org/ns#"
   xmlns:rdf="http://www.w3.org/1999/02/22-rdf-syntax-ns#"
   xmlns:svg="http://www.w3.org/2000/svg"
   xmlns="http://www.w3.org/2000/svg"
   xmlns:sodipodi="http://sodipodi.sourceforge.net/DTD/sodipodi-0.dtd"
   xmlns:inkscape="http://www.inkscape.org/namespaces/inkscape"
   viewBox="0 0 512 512"
   version="1.1"
   id="svg21"
   sodipodi:docname="d.svg"
   inkscape:version="0.92.1 r15371">
  <metadata
     id="metadata27">
    <rdf:RDF>
      <cc:Work
         rdf:about="">
        <dc:format>image/svg+xml</dc:format>
        <dc:type
           rdf:resource="http://purl.org/dc/dcmitype/StillImage" />
        <dc:title></dc:title>
      </cc:Work>
    </rdf:RDF>
  </metadata>
  <defs
     id="defs25" />
  <sodipodi:namedview
     pagecolor="#ffffff"
     bordercolor="#666666"
     borderopacity="1"
     objecttolerance="10"
     gridtolerance="10"
     guidetolerance="10"
     inkscape:pageopacity="0"
     inkscape:pageshadow="2"
     inkscape:window-width="1920"
     inkscape:window-height="968"
     id="namedview23"
     showgrid="false"
     inkscape:zoom="0.4609375"
     inkscape:cx="253.83051"
     inkscape:cy="-4.3389831"
     inkscape:window-x="0"
     inkscape:window-y="0"
     inkscape:window-maximized="1"
     inkscape:current-layer="svg21" />
  <linearGradient
     id="a"
     gradientTransform="matrix(1 0 0 -1 0 -10886)"
     gradientUnits="userSpaceOnUse"
     x1="0"
     x2="512"
     y1="-11142"
     y2="-11142">
    <stop
       offset="0"
       stop-color="#00f1ff"
       id="stop2" />
    <stop
       offset=".231"
       stop-color="#00d8ff"
       id="stop4" />
    <stop
       offset=".5138"
       stop-color="#00c0ff"
       id="stop6" />
    <stop
       offset=".7773"
       stop-color="#00b2ff"
       id="stop8" />
    <stop
       offset="1"
       stop-color="#00adff"
       id="stop10" />
  </linearGradient>
  <path
     d="m512 256c0 141.386719-114.613281 256-256 256s-256-114.613281-256-256 114.613281-256 256-256 256 114.613281 256 256zm0 0"
     fill="url(#a)"
     id="path13" />
  <g
     id="g19"
     transform="matrix(0.64031016,0,0,-0.65288136,91.440759,423.13763)"
     style="fill:#ffffff">
    <path
       d="m 257,456 c -12.38281,0 -24.02344,-4.82031 -32.77734,-13.57813 L 86.492188,305.03125 c -5.867188,-5.85156 -5.878907,-15.34766 -0.02734,-21.21484 5.851562,-5.86328 15.347652,-5.875 21.214842,-0.0234 l 137.74218,137.4023 C 248.52344,424.30078 252.63281,426 257,426 c 4.36719,0 8.47656,-1.69922 11.56641,-4.78906 l 137.7539,-137.42188 c 5.86719,-5.84765 15.36328,-5.83984 21.21485,0.0274 5.85156,5.86718 5.83593,15.36328 -0.0274,21.21484 L 289.76562,442.4375 C 281.02344,451.17969 269.38281,456 257,456 Z m 0,0"
       id="path15"
       inkscape:connector-curvature="0" />
    <path
       d="m 257,369.76953 c -8.28516,0 -15,-6.71484 -15,-15 V 71 c 0,-8.285156 6.71484,-15 15,-15 8.28516,0 15,6.714844 15,15 v 283.76953 c 0,8.28516 -6.71484,15 -15,15 z m 0,0"
       id="path17"
       inkscape:connector-curvature="0" />
  </g>
</svg>
