<?xml version="1.0" standalone="no"?><!DOCTYPE svg PUBLIC "-//W3C//DTD SVG 1.1//EN" "http://www.w3.org/Graphics/SVG/1.1/DTD/svg11.dtd"><svg t="1553407671348" class="icon" style="" viewBox="0 0 1024 1024" version="1.1" xmlns="http://www.w3.org/2000/svg" p-id="2620" xmlns:xlink="http://www.w3.org/1999/xlink" width="22" height="22"><defs><style type="text/css"></style></defs><path d="M544 128h-288c-19.2 0-32 12.8-32 32v704c0 19.2 12.8 32 32 32h512c19.2 0 32-12.8 32-32v-480h-192c-35.2 0-64-28.8-64-64v-192z m64 12.8v179.2h179.2l-179.2-179.2z m-352-76.8h352c9.6 0 16 3.2 22.4 9.6l224 224c6.4 6.4 9.6 12.8 9.6 22.4v544c0 54.4-41.6 96-96 96h-512c-54.4 0-96-41.6-96-96v-704c0-54.4 41.6-96 96-96z m64 352h160c19.2 0 32 12.8 32 32s-12.8 32-32 32h-160c-19.2 0-32-12.8-32-32s12.8-32 32-32z m0 128h384c19.2 0 32 12.8 32 32s-12.8 32-32 32h-384c-19.2 0-32-12.8-32-32s12.8-32 32-32z m0 128h384c19.2 0 32 12.8 32 32s-12.8 32-32 32h-384c-19.2 0-32-12.8-32-32s12.8-32 32-32z" p-id="2621" fill="#707070"></path></svg>