<?xml version="1.0" standalone="no"?><!DOCTYPE svg PUBLIC "-//W3C//DTD SVG 1.1//EN" "http://www.w3.org/Graphics/SVG/1.1/DTD/svg11.dtd"><svg t="1553408648837" class="icon" style="" viewBox="0 0 1024 1024" version="1.1" xmlns="http://www.w3.org/2000/svg" p-id="6731" xmlns:xlink="http://www.w3.org/1999/xlink" width="22" height="22"><defs><style type="text/css"></style></defs><path d="M845.6448 205.911H538.71616c-30.2459 0-55.806-19.156-55.806-41.854 0-53.844-50.0828-97.6599-111.6109-97.6599h-195.31776000000002c-61.5547 0-111.6109 43.8159-111.6109 97.6599v767.322112h27.902976v27.901952h837.0780159999999v-27.901952h27.902976V317.52089599999994C957.2557 255.9662 907.1718 205.911 845.6448 205.911zM175.9816 122.2031h195.31776000000002c30.2469 0 55.8049 19.1549 55.8049 41.854 0 53.844 50.0562 97.6589 111.6119 97.6589h306.927616c30.763 0 55.8049 25.0419 55.8049 55.806H120.175616V164.057088C120.1756 141.3581 145.7357 122.2031 175.9816 122.2031zM901.4497 373.3258v530.1504H120.175616V373.325824H901.449728z" p-id="6732" fill="#707070"></path></svg>