<?xml version="1.0" encoding="UTF-8" standalone="no"?>
<svg
   xmlns:dc="http://purl.org/dc/elements/1.1/"
   xmlns:cc="http://creativecommons.org/ns#"
   xmlns:rdf="http://www.w3.org/1999/02/22-rdf-syntax-ns#"
   xmlns:svg="http://www.w3.org/2000/svg"
   xmlns="http://www.w3.org/2000/svg"
   xmlns:sodipodi="http://sodipodi.sourceforge.net/DTD/sodipodi-0.dtd"
   xmlns:inkscape="http://www.inkscape.org/namespaces/inkscape"
   t="1553194782373"
   class="icon"
   style=""
   viewBox="0 0 1024 1024"
   version="1.1"
   p-id="4180"
   width="64"
   height="64"
   id="svg4578"
   sodipodi:docname="settings.svg"
   inkscape:version="0.92.3 (2405546, 2018-03-11)">
  <metadata
     id="metadata4582">
    <rdf:RDF>
      <cc:Work
         rdf:about="">
        <dc:format>image/svg+xml</dc:format>
        <dc:type
           rdf:resource="http://purl.org/dc/dcmitype/StillImage" />
      </cc:Work>
    </rdf:RDF>
  </metadata>
  <sodipodi:namedview
     pagecolor="#ffffff"
     bordercolor="#666666"
     borderopacity="1"
     objecttolerance="10"
     gridtolerance="10"
     guidetolerance="10"
     inkscape:pageopacity="0"
     inkscape:pageshadow="2"
     inkscape:window-width="1841"
     inkscape:window-height="1040"
     id="namedview4580"
     showgrid="false"
     inkscape:zoom="3.2539063"
     inkscape:cx="132.35665"
     inkscape:cy="24.888744"
     inkscape:window-x="79"
     inkscape:window-y="0"
     inkscape:window-maximized="1"
     inkscape:current-layer="svg4578" />
  <defs
     id="defs4572">
    <style
       type="text/css"
       id="style4570" />
    <style
       id="style4584"
       type="text/css" />
  </defs>
  <path
     d="M763.648 968.96H261.504C147.456 968.96 55.04 876.544 55.04 762.496V260.352c0-114.048 92.416-206.464 206.464-206.464h502.144c114.048 0 206.464 92.416 206.464 206.464v502.144c-0.128 114.048-92.416 206.464-206.464 206.464z"
     p-id="4181"
     id="path4574"
     fill="#7093AF" />
  <path
     id="path4588"
     p-id="1952"
     d="M 541.73699,361.50139 H 374.10164 c -7.18437,0 -11.97395,4.72254 -11.97395,11.80633 0,7.08379 4.78958,11.80632 11.97395,11.80632 h 167.63535 c 7.18437,0 11.97395,-4.72253 11.97395,-11.80632 0,-7.08379 -4.78958,-11.80633 -11.97395,-11.80633 z m 203.5572,70.83794 h -23.94791 v -70.83794 l -23.9479,-23.61263 -71.84372,-70.83794 H 314.23188 c -13.17135,0 -23.94791,10.62569 -23.94791,23.61264 v 141.67587 h -23.94791 c -13.17135,0 -23.94791,10.62569 -23.94791,23.61265 v 94.45058 c 0,12.98695 10.77656,23.61264 23.94791,23.61264 h 23.94791 v 200.70748 c 0,7.0838 4.78958,11.80632 11.97395,11.80632 7.18437,0 11.97396,-4.72252 11.97396,-11.80632 V 574.0152 h 23.9479 v 129.86955 c 0,7.08379 4.78958,11.80632 11.97396,11.80632 7.18437,0 11.97395,-4.72253 11.97395,-11.80632 V 574.0152 h 23.94791 v 59.03161 c 0,7.0838 4.78957,11.80632 11.97395,11.80632 7.18437,0 11.97395,-4.72252 11.97395,-11.80632 V 574.0152 h 23.94791 v 177.09484 c 0,7.08379 4.78958,11.80632 11.97395,11.80632 7.18437,0 11.97395,-4.72253 11.97395,-11.80632 V 574.0152 h 35.92186 v 153.4822 c 0,7.08379 4.78958,11.80632 11.97396,11.80632 7.18437,0 11.97395,-4.72253 11.97395,-11.80632 V 574.0152 h 35.92186 v 82.64426 c 0,7.08379 4.78958,11.80632 11.97395,11.80632 7.18438,0 11.97396,-4.72253 11.97396,-11.80632 V 574.0152 h 23.9479 v 106.2569 c 0,7.0838 4.78958,11.80633 11.97395,11.80633 7.18438,0 11.97396,-4.72253 11.97396,-11.80633 V 574.0152 h 23.9479 v 177.09484 c 0,7.08379 4.78958,11.80632 11.97396,11.80632 7.18437,0 11.97395,-4.72253 11.97395,-11.80632 V 574.0152 h 23.94791 v 153.4822 c 0,7.08379 4.78958,11.80632 11.97395,11.80632 7.18437,0 11.97395,-4.72253 11.97395,-11.80632 V 574.0152 h 23.94791 c 13.17135,0 23.9479,-10.62569 23.9479,-23.61264 v -94.45058 c 0,-12.98696 -10.77655,-23.61265 -23.9479,-23.61265 z m -119.73953,-129.86954 59.86976,59.0316 H 625.55466 Z M 314.23188,290.66346 h 287.37487 v 82.64426 c 0,7.08379 4.78958,11.80632 11.97395,11.80632 h 83.81768 v 47.22529 h -383.1665 z m 431.06231,259.7391 H 266.33606 V 455.95198 H 745.29419 Z M 302.25792,514.98359 c 7.18437,0 11.97396,-4.72253 11.97396,-11.80633 0,-7.08379 -4.78959,-11.80632 -11.97396,-11.80632 -7.18437,0 -11.97395,4.72253 -11.97395,11.80632 0,7.0838 4.78958,11.80633 11.97395,11.80633 z m 47.89582,0 c 7.18437,0 11.97395,-4.72253 11.97395,-11.80633 0,-7.08379 -4.78958,-11.80632 -11.97395,-11.80632 -7.18438,0 -11.97396,4.72253 -11.97396,11.80632 0,7.0838 4.78958,11.80633 11.97396,11.80633 z"
     inkscape:connector-curvature="0"
     style="fill:#ffffff;stroke-width:0.55733639" />
</svg>
