<?xml version="1.0" encoding="UTF-8" standalone="no"?>
<svg
   xmlns:dc="http://purl.org/dc/elements/1.1/"
   xmlns:cc="http://creativecommons.org/ns#"
   xmlns:rdf="http://www.w3.org/1999/02/22-rdf-syntax-ns#"
   xmlns:svg="http://www.w3.org/2000/svg"
   xmlns="http://www.w3.org/2000/svg"
   xmlns:sodipodi="http://sodipodi.sourceforge.net/DTD/sodipodi-0.dtd"
   xmlns:inkscape="http://www.inkscape.org/namespaces/inkscape"
   t="1553194782373"
   class="icon"
   style=""
   viewBox="0 0 1024 1024"
   version="1.1"
   p-id="4180"
   width="64"
   height="64"
   id="svg4578"
   sodipodi:docname="sysbro-file-shredder.svg"
   inkscape:version="0.92.1 r15371">
  <metadata
     id="metadata4582">
    <rdf:RDF>
      <cc:Work
         rdf:about="">
        <dc:format>image/svg+xml</dc:format>
        <dc:type
           rdf:resource="http://purl.org/dc/dcmitype/StillImage" />
      </cc:Work>
    </rdf:RDF>
  </metadata>
  <sodipodi:namedview
     pagecolor="#ffffff"
     bordercolor="#666666"
     borderopacity="1"
     objecttolerance="10"
     gridtolerance="10"
     guidetolerance="10"
     inkscape:pageopacity="0"
     inkscape:pageshadow="2"
     inkscape:window-width="1178"
     inkscape:window-height="810"
     id="namedview4580"
     showgrid="false"
     inkscape:zoom="10.24"
     inkscape:cx="30.799238"
     inkscape:cy="33.27265"
     inkscape:window-x="699"
     inkscape:window-y="124"
     inkscape:window-maximized="0"
     inkscape:current-layer="svg4578" />
  <defs
     id="defs4572">
    <style
       type="text/css"
       id="style4570" />
    <style
       id="style4584"
       type="text/css" />
  </defs>
  <path
     d="M763.648 968.96H261.504C147.456 968.96 55.04 876.544 55.04 762.496V260.352c0-114.048 92.416-206.464 206.464-206.464h502.144c114.048 0 206.464 92.416 206.464 206.464v502.144c-0.128 114.048-92.416 206.464-206.464 206.464z"
     p-id="4181"
     id="path4574"
     fill="#56A157"
     style="stroke:none;stroke-opacity:1;fill:#56a157;fill-opacity:1" />
  <g
     id="g1032"
     transform="matrix(0.57051306,0,0,0.55340203,227.7935,227.99548)">
    <path
       id="path1016"
       p-id="4867"
       d="M 796.8,878.4 H 227.2 c -44.8,0 -81.6,-36.8 -81.6,-81.6 V 227.2 c 0,-44.8 36.8,-81.6 81.6,-81.6 h 570.4 c 44.8,0 81.6,36.8 81.6,81.6 v 570.4 c -0.8,44 -37.6,80.8 -82.4,80.8 z M 227.2,177.6 c -27.2,0 -49.6,22.4 -49.6,49.6 v 570.4 c 0,27.2 22.4,49.6 49.6,49.6 h 570.4 c 27.2,0 49.6,-22.4 49.6,-49.6 V 227.2 c 0,-27.2 -22.4,-49.6 -49.6,-49.6 z"
       inkscape:connector-curvature="0"
       style="fill:#ffffff" />
    <path
       id="path1018"
       p-id="4868"
       d="M 769.6,777.6 H 254.4 c -4.8,0 -8,-3.2 -8,-8 V 254.4 c 0,-4.8 3.2,-8 8,-8 H 660 c 2.4,0 4,0.8 5.6,2.4 L 776,359.2 c 1.6,1.6 2.4,3.2 2.4,5.6 v 405.6 c -0.8,4 -4,7.2 -8.8,7.2 z m -507.2,-16 h 500 V 367.2 L 656.8,262.4 H 262.4 Z"
       inkscape:connector-curvature="0"
       style="fill:#ffffff" />
    <path
       id="path1020"
       p-id="4869"
       d="m 348.8,712 c -4.8,0 -8,-3.2 -8,-8 v -79.2 c 0,-4.8 3.2,-8 8,-8 4.8,0 8,3.2 8,8 V 704 c 0,4 -4,8 -8,8 z m 81.6,0 c -4.8,0 -8,-3.2 -8,-8 v -79.2 c 0,-4.8 3.2,-8 8,-8 4.8,0 8,3.2 8,8 V 704 c 0,4 -4,8 -8,8 z m 81.6,0 c -4.8,0 -8,-3.2 -8,-8 v -79.2 c 0,-4.8 3.2,-8 8,-8 4.8,0 8,3.2 8,8 V 704 c 0,4 -3.2,8 -8,8 z m 81.6,0 c -4.8,0 -8,-3.2 -8,-8 v -79.2 c 0,-4.8 3.2,-8 8,-8 4.8,0 8,3.2 8,8 V 704 c 0,4 -3.2,8 -8,8 z m 81.6,0 c -4.8,0 -8,-3.2 -8,-8 v -79.2 c 0,-4.8 3.2,-8 8,-8 4.8,0 8,3.2 8,8 V 704 c 0,4 -3.2,8 -8,8 z M 1004,247.2 h -65.6 c -8.8,0 -16,-7.2 -16,-16 0,-8.8 7.2,-16 16,-16 h 65.6 c 8.8,0 16,7.2 16,16 0,8.8 -7.2,16 -16,16 z m 0,140.8 h -65.6 c -8.8,0 -16,-7.2 -16,-16 0,-8.8 7.2,-16 16,-16 h 65.6 c 8.8,0 16,7.2 16,16 0,8.8 -7.2,16 -16,16 z m 0,140 h -65.6 c -8.8,0 -16,-7.2 -16,-16 0,-8.8 7.2,-16 16,-16 h 65.6 c 8.8,0 16,7.2 16,16 0,8.8 -7.2,16 -16,16 z m 0,140 h -65.6 c -8.8,0 -16,-7.2 -16,-16 0,-8.8 7.2,-16 16,-16 h 65.6 c 8.8,0 16,7.2 16,16 0,8.8 -7.2,16 -16,16 z m 0,140.8 h -65.6 c -8.8,0 -16,-7.2 -16,-16 0,-8.8 7.2,-16 16,-16 h 65.6 c 8.8,0 16,7.2 16,16 0,8.8 -7.2,16 -16,16 z M 85.6,247.2 H 20 c -8.8,0 -16,-7.2 -16,-16 0,-8.8 7.2,-16 16,-16 h 65.6 c 8.8,0 16,7.2 16,16 0,8.8 -7.2,16 -16,16 z m 0,140.8 H 20 c -8.8,0 -16,-7.2 -16,-16 0,-8.8 7.2,-16 16,-16 h 65.6 c 8.8,0 16,7.2 16,16 0,8.8 -7.2,16 -16,16 z m 0,140 H 20 c -8.8,0 -16,-7.2 -16,-16 0,-8.8 7.2,-16 16,-16 h 65.6 c 8.8,0 16,7.2 16,16 0,8.8 -7.2,16 -16,16 z m 0,140 H 20 c -8.8,0 -16,-7.2 -16,-16 0,-8.8 7.2,-16 16,-16 h 65.6 c 8.8,0 16,7.2 16,16 0,8.8 -7.2,16 -16,16 z m 0,140.8 H 20 c -8.8,0 -16,-7.2 -16,-16 0,-8.8 7.2,-16 16,-16 h 65.6 c 8.8,0 16,7.2 16,16 0,8.8 -7.2,16 -16,16 z M 231.2,101.6 c -8.8,0 -16,-7.2 -16,-16 V 20 c 0,-8.8 7.2,-16 16,-16 8.8,0 16,7.2 16,16 v 65.6 c 0,8.8 -7.2,16 -16,16 z m 140.8,0 c -8.8,0 -16,-7.2 -16,-16 V 20 c 0,-8.8 7.2,-16 16,-16 8.8,0 16,7.2 16,16 v 65.6 c 0,8.8 -7.2,16 -16,16 z m 140,0 c -8.8,0 -16,-7.2 -16,-16 V 20 c 0,-8.8 7.2,-16 16,-16 8.8,0 16,7.2 16,16 v 65.6 c 0,8.8 -7.2,16 -16,16 z m 140,0 c -8.8,0 -16,-7.2 -16,-16 V 20 c 0,-8.8 7.2,-16 16,-16 8.8,0 16,7.2 16,16 v 65.6 c 0,8.8 -7.2,16 -16,16 z m 140.8,0 c -8.8,0 -16,-7.2 -16,-16 V 20 c 0,-8.8 7.2,-16 16,-16 8.8,0 16,7.2 16,16 v 65.6 c 0,8.8 -7.2,16 -16,16 z M 231.2,1020 c -8.8,0 -16,-7.2 -16,-16 v -65.6 c 0,-8.8 7.2,-16 16,-16 8.8,0 16,7.2 16,16 v 65.6 c 0,8.8 -7.2,16 -16,16 z m 140.8,0 c -8.8,0 -16,-7.2 -16,-16 v -65.6 c 0,-8.8 7.2,-16 16,-16 8.8,0 16,7.2 16,16 v 65.6 c 0,8.8 -7.2,16 -16,16 z m 140,0 c -8.8,0 -16,-7.2 -16,-16 v -65.6 c 0,-8.8 7.2,-16 16,-16 8.8,0 16,7.2 16,16 v 65.6 c 0,8.8 -7.2,16 -16,16 z m 140,0 c -8.8,0 -16,-7.2 -16,-16 v -65.6 c 0,-8.8 7.2,-16 16,-16 8.8,0 16,7.2 16,16 v 65.6 c 0,8.8 -7.2,16 -16,16 z m 140.8,0 c -8.8,0 -16,-7.2 -16,-16 v -65.6 c 0,-8.8 7.2,-16 16,-16 8.8,0 16,7.2 16,16 v 65.6 c 0,8.8 -7.2,16 -16,16 z"
       inkscape:connector-curvature="0"
       style="fill:#ffffff" />
  </g>
</svg>
